G04 Layer: BottomPasteMaskLayer*
G04 EasyEDA v6.5.42, 2024-04-23 23:59:32*
G04 6f1416cd65ae409284c29a2362dae36f,3bb721cc424b4652afb4738f699644a2,10*
G04 Gerber Generator version 0.2*
G04 Scale: 100 percent, Rotated: No, Reflected: No *
G04 Dimensions in millimeters *
G04 leading zeros omitted , absolute positions ,4 integer and 5 decimal *
%FSLAX45Y45*%
%MOMM*%

%AMMACRO1*21,1,$1,$2,0,0,$3*%
%ADD10MACRO1,1.8001X1.0998X0.0000*%
%ADD11MACRO1,1.7998X1.0998X0.0000*%
%ADD12MACRO1,0.8001X0.8999X90.0000*%
%ADD13MACRO1,0.8001X0.9002X0.0000*%
%ADD14MACRO1,0.7998X0.8999X0.0000*%
%ADD15MACRO1,1.0998X0.5999X0.0000*%
%ADD16MACRO1,1.1001X0.5999X0.0000*%
%ADD17MACRO1,0.5999X0.7998X0.0000*%
%ADD18MACRO1,0.7X1X90.0000*%
%ADD19MACRO1,0.5319X1.0719X90.0000*%
%ADD20MACRO1,0.5999X1X-90.0000*%
%ADD21MACRO1,0.8001X0.8999X0.0000*%
%ADD22MACRO1,0.8001X0.7998X0.0000*%
%ADD23MACRO1,0.7998X0.7998X0.0000*%
%ADD24MACRO1,0.5999X1.2002X90.0000*%
%ADD25MACRO1,0.5999X1.2001X90.0000*%
%ADD26MACRO1,3.3X2.4X-90.0000*%
%ADD27MACRO1,0.95X2.1001X90.0000*%
%ADD28MACRO1,2.1001X0.95X90.0000*%
%ADD29MACRO1,5X5X0.0000*%
%ADD30C,0.0165*%

%LPD*%
G36*
X1634998Y357987D02*
G01*
X1634998Y312978D01*
X1589989Y312978D01*
X1589989Y357022D01*
X1547977Y357479D01*
X1542999Y352501D01*
X1542999Y237490D01*
X1547977Y232511D01*
X1675993Y232511D01*
X1681022Y237490D01*
X1681022Y352501D01*
X1675993Y357479D01*
G37*
G36*
X1547977Y572516D02*
G01*
X1542999Y567486D01*
X1542999Y452475D01*
X1547977Y447497D01*
X1589989Y447497D01*
X1589989Y491998D01*
X1634998Y491998D01*
X1634998Y448005D01*
X1675993Y447497D01*
X1681022Y452475D01*
X1681022Y567486D01*
X1675993Y572516D01*
G37*
G36*
X550011Y1135481D02*
G01*
X544982Y1130503D01*
X544982Y1050493D01*
X550011Y1045514D01*
X630021Y1045514D01*
X635000Y1050493D01*
X635000Y1130503D01*
X630021Y1135481D01*
X605790Y1135481D01*
X605790Y1098499D01*
X572820Y1098499D01*
X572820Y1135481D01*
G37*
G36*
X550011Y1294485D02*
G01*
X544982Y1289507D01*
X544982Y1210513D01*
X550011Y1205484D01*
X572820Y1205484D01*
X572820Y1243482D01*
X605790Y1243482D01*
X605790Y1205484D01*
X630021Y1205484D01*
X635000Y1210513D01*
X635000Y1289507D01*
X630021Y1294485D01*
G37*
G36*
X1309979Y365506D02*
G01*
X1305001Y360476D01*
X1305001Y280517D01*
X1309979Y275488D01*
X1389989Y275488D01*
X1395018Y280517D01*
X1395018Y360476D01*
X1389989Y365506D01*
X1365808Y365506D01*
X1365808Y328472D01*
X1332788Y328472D01*
X1332788Y365506D01*
G37*
G36*
X1309979Y524510D02*
G01*
X1305001Y519480D01*
X1305001Y440486D01*
X1309979Y435508D01*
X1332788Y435508D01*
X1332788Y473506D01*
X1365808Y473506D01*
X1365808Y435508D01*
X1389989Y435508D01*
X1395018Y440486D01*
X1395018Y519480D01*
X1389989Y524510D01*
G37*
G36*
X259486Y4174998D02*
G01*
X254508Y4169968D01*
X254508Y4145787D01*
X291490Y4145787D01*
X291490Y4112768D01*
X254508Y4112768D01*
X254508Y4090009D01*
X259486Y4084980D01*
X339496Y4084980D01*
X344525Y4090009D01*
X344525Y4169968D01*
X339496Y4174998D01*
G37*
G36*
X100482Y4174998D02*
G01*
X95504Y4169968D01*
X95504Y4090009D01*
X100482Y4084980D01*
X179527Y4084980D01*
X184505Y4090009D01*
X184505Y4112768D01*
X146507Y4112768D01*
X146507Y4145787D01*
X184505Y4145787D01*
X184505Y4169968D01*
X179527Y4174998D01*
G37*
G36*
X5010505Y2764993D02*
G01*
X5005476Y2760014D01*
X5005476Y2680004D01*
X5010505Y2674975D01*
X5090464Y2674975D01*
X5095494Y2680004D01*
X5095494Y2704185D01*
X5058511Y2704185D01*
X5058511Y2737205D01*
X5095494Y2737205D01*
X5095494Y2760014D01*
X5090464Y2764993D01*
G37*
G36*
X5170474Y2764993D02*
G01*
X5165496Y2760014D01*
X5165496Y2737205D01*
X5203494Y2737205D01*
X5203494Y2704185D01*
X5165496Y2704185D01*
X5165496Y2680004D01*
X5170474Y2674975D01*
X5249468Y2674975D01*
X5254498Y2680004D01*
X5254498Y2760014D01*
X5249468Y2764993D01*
G37*
G36*
X940511Y4944973D02*
G01*
X935482Y4939995D01*
X935482Y4859985D01*
X940511Y4855006D01*
X1020521Y4855006D01*
X1025499Y4859985D01*
X1025499Y4884216D01*
X988517Y4884216D01*
X988517Y4917186D01*
X1025499Y4917186D01*
X1025499Y4939995D01*
X1020521Y4944973D01*
G37*
G36*
X1100480Y4944973D02*
G01*
X1095502Y4939995D01*
X1095502Y4917186D01*
X1133500Y4917186D01*
X1133500Y4884216D01*
X1095502Y4884216D01*
X1095502Y4859985D01*
X1100480Y4855006D01*
X1179474Y4855006D01*
X1184503Y4859985D01*
X1184503Y4939995D01*
X1179474Y4944973D01*
G37*
G36*
X2430018Y562508D02*
G01*
X2430018Y422503D01*
X2469997Y422503D01*
X2469997Y562508D01*
G37*
G36*
X2364994Y562508D02*
G01*
X2364994Y422503D01*
X2405024Y422503D01*
X2405024Y562508D01*
G37*
G36*
X2300020Y562508D02*
G01*
X2300020Y422503D01*
X2340000Y422503D01*
X2340000Y562508D01*
G37*
G36*
X2234996Y562508D02*
G01*
X2234996Y422503D01*
X2274976Y422503D01*
X2274976Y562508D01*
G37*
G36*
X2169972Y562508D02*
G01*
X2169972Y422503D01*
X2210003Y422503D01*
X2210003Y562508D01*
G37*
G36*
X1961184Y635000D02*
G01*
X1955952Y634593D01*
X1950821Y633679D01*
X1945792Y632256D01*
X1940915Y630326D01*
X1936242Y627938D01*
X1931873Y625094D01*
X1927758Y621842D01*
X1923999Y618185D01*
X1920646Y614172D01*
X1917700Y609854D01*
X1915210Y605282D01*
X1913178Y600456D01*
X1911604Y595426D01*
X1910588Y590296D01*
X1910080Y585114D01*
X1909978Y502513D01*
X1910283Y497281D01*
X1911045Y492099D01*
X1912315Y487019D01*
X1914143Y482092D01*
X1916379Y477367D01*
X1919122Y472897D01*
X1922272Y468731D01*
X1925828Y464921D01*
X1929790Y461467D01*
X1934006Y458368D01*
X1938528Y455777D01*
X1943303Y453593D01*
X1948281Y451967D01*
X1953361Y450799D01*
X1958593Y450138D01*
X1963826Y449986D01*
X1969007Y450392D01*
X1974189Y451307D01*
X1979218Y452729D01*
X1984095Y454609D01*
X1988769Y456996D01*
X1993138Y459841D01*
X1997252Y463143D01*
X2001012Y466801D01*
X2004364Y470763D01*
X2007311Y475132D01*
X2009800Y479704D01*
X2011832Y484530D01*
X2013356Y489559D01*
X2014423Y494639D01*
X2014931Y499872D01*
X2014982Y582472D01*
X2014728Y587705D01*
X2013966Y592886D01*
X2012696Y597966D01*
X2010867Y602894D01*
X2008632Y607618D01*
X2005888Y612089D01*
X2002739Y616254D01*
X1999183Y620064D01*
X1995220Y623519D01*
X1991004Y626567D01*
X1986432Y629208D01*
X1981707Y631342D01*
X1976729Y633018D01*
X1971598Y634187D01*
X1966417Y634847D01*
G37*
G36*
X2676194Y635000D02*
G01*
X2670962Y634593D01*
X2665780Y633679D01*
X2660751Y632256D01*
X2655874Y630326D01*
X2651252Y627938D01*
X2646832Y625094D01*
X2642768Y621842D01*
X2639009Y618185D01*
X2635656Y614172D01*
X2632710Y609854D01*
X2630170Y605282D01*
X2628138Y600456D01*
X2626614Y595426D01*
X2625547Y590296D01*
X2625039Y585114D01*
X2624988Y502513D01*
X2625242Y497281D01*
X2626004Y492099D01*
X2627325Y487019D01*
X2629103Y482092D01*
X2631389Y477367D01*
X2634132Y472897D01*
X2637282Y468731D01*
X2640838Y464921D01*
X2644749Y461467D01*
X2649016Y458368D01*
X2653538Y455777D01*
X2658313Y453593D01*
X2663291Y451967D01*
X2668371Y450799D01*
X2673553Y450138D01*
X2678785Y449986D01*
X2684018Y450392D01*
X2689148Y451307D01*
X2694228Y452729D01*
X2699054Y454609D01*
X2703728Y456996D01*
X2708148Y459841D01*
X2712212Y463143D01*
X2715971Y466801D01*
X2719324Y470763D01*
X2722270Y475132D01*
X2724810Y479704D01*
X2726842Y484530D01*
X2728366Y489559D01*
X2729382Y494639D01*
X2729941Y499872D01*
X2729992Y582472D01*
X2729738Y587705D01*
X2728925Y592886D01*
X2727655Y597966D01*
X2725877Y602894D01*
X2723591Y607618D01*
X2720848Y612089D01*
X2717698Y616254D01*
X2714142Y620064D01*
X2710230Y623519D01*
X2705963Y626567D01*
X2701442Y629208D01*
X2696667Y631342D01*
X2691688Y633018D01*
X2686608Y634187D01*
X2681427Y634847D01*
G37*
G36*
X1961184Y294995D02*
G01*
X1955952Y294589D01*
X1950821Y293674D01*
X1945792Y292252D01*
X1940915Y290322D01*
X1936242Y287934D01*
X1931873Y285089D01*
X1927758Y281838D01*
X1923999Y278180D01*
X1920646Y274167D01*
X1917700Y269849D01*
X1915210Y265277D01*
X1913178Y260451D01*
X1911604Y255422D01*
X1910588Y250291D01*
X1910080Y245110D01*
X1909978Y162509D01*
X1910283Y157276D01*
X1911045Y152095D01*
X1912315Y147015D01*
X1914143Y142087D01*
X1916379Y137363D01*
X1919122Y132892D01*
X1922272Y128727D01*
X1925828Y124917D01*
X1929790Y121462D01*
X1934006Y118364D01*
X1938528Y115773D01*
X1943303Y113588D01*
X1948281Y111963D01*
X1953361Y110794D01*
X1958593Y110134D01*
X1963826Y109982D01*
X1969007Y110388D01*
X1974189Y111302D01*
X1979218Y112725D01*
X1984095Y114604D01*
X1988769Y116992D01*
X1993138Y119837D01*
X1997252Y123139D01*
X2001012Y126796D01*
X2004364Y130759D01*
X2007311Y135128D01*
X2009800Y139700D01*
X2011832Y144526D01*
X2013356Y149555D01*
X2014423Y154635D01*
X2014931Y159867D01*
X2014982Y242468D01*
X2014728Y247700D01*
X2013966Y252882D01*
X2012696Y257962D01*
X2010867Y262890D01*
X2008632Y267614D01*
X2005888Y272084D01*
X2002739Y276250D01*
X1999183Y280060D01*
X1995220Y283514D01*
X1991004Y286562D01*
X1986432Y289204D01*
X1981707Y291338D01*
X1976729Y293014D01*
X1971598Y294182D01*
X1966417Y294843D01*
G37*
G36*
X2676194Y290017D02*
G01*
X2670962Y289610D01*
X2665780Y288696D01*
X2660751Y287274D01*
X2655874Y285343D01*
X2651252Y282956D01*
X2646832Y280111D01*
X2642768Y276860D01*
X2639009Y273202D01*
X2635656Y269189D01*
X2632710Y264871D01*
X2630170Y260299D01*
X2628138Y255473D01*
X2626614Y250444D01*
X2625547Y245313D01*
X2625039Y240131D01*
X2624988Y157530D01*
X2625242Y152298D01*
X2626004Y147116D01*
X2627325Y142036D01*
X2629103Y137109D01*
X2631389Y132384D01*
X2634132Y127914D01*
X2637282Y123748D01*
X2640838Y119938D01*
X2644749Y116484D01*
X2649016Y113385D01*
X2653538Y110794D01*
X2658313Y108661D01*
X2663291Y106984D01*
X2668371Y105816D01*
X2673553Y105156D01*
X2678785Y105003D01*
X2684018Y105410D01*
X2689148Y106324D01*
X2694228Y107746D01*
X2699054Y109677D01*
X2703728Y112064D01*
X2708148Y114858D01*
X2712212Y118160D01*
X2715971Y121818D01*
X2719324Y125780D01*
X2722270Y130149D01*
X2724810Y134721D01*
X2726842Y139547D01*
X2728366Y144576D01*
X2729382Y149707D01*
X2729941Y154889D01*
X2729992Y237490D01*
X2729738Y242722D01*
X2728925Y247904D01*
X2727655Y252984D01*
X2725877Y257911D01*
X2723591Y262636D01*
X2720848Y267106D01*
X2717698Y271272D01*
X2714142Y275082D01*
X2710230Y278536D01*
X2705963Y281584D01*
X2701442Y284226D01*
X2696667Y286359D01*
X2691688Y288036D01*
X2686608Y289204D01*
X2681427Y289864D01*
G37*
G36*
X206502Y2546400D02*
G01*
X196494Y2536393D01*
X196494Y2383586D01*
X206502Y2373579D01*
X334975Y2373579D01*
X344982Y2383586D01*
X344982Y2420620D01*
X334975Y2430627D01*
X304495Y2430627D01*
X294487Y2440635D01*
X294487Y2479344D01*
X304495Y2489352D01*
X334975Y2489352D01*
X344982Y2499360D01*
X344982Y2536393D01*
X334975Y2546400D01*
G37*
G36*
X525018Y2546400D02*
G01*
X515010Y2536393D01*
X515010Y2499360D01*
X525018Y2489352D01*
X555498Y2489352D01*
X565505Y2479344D01*
X565505Y2440635D01*
X555498Y2430627D01*
X525018Y2430627D01*
X515010Y2420620D01*
X515010Y2383586D01*
X525018Y2373579D01*
X653491Y2373579D01*
X663498Y2383586D01*
X663498Y2536393D01*
X653491Y2546400D01*
G37*
G36*
X5229504Y2175002D02*
G01*
X5224475Y2170023D01*
X5224475Y2145792D01*
X5261508Y2145792D01*
X5261508Y2112772D01*
X5224475Y2112772D01*
X5224475Y2090013D01*
X5229504Y2084984D01*
X5309514Y2084984D01*
X5314492Y2090013D01*
X5314492Y2170023D01*
X5309514Y2175002D01*
G37*
G36*
X5070500Y2175002D02*
G01*
X5065471Y2170023D01*
X5065471Y2090013D01*
X5070500Y2084984D01*
X5149494Y2084984D01*
X5154472Y2090013D01*
X5154472Y2112772D01*
X5116474Y2112772D01*
X5116474Y2145792D01*
X5154472Y2145792D01*
X5154472Y2170023D01*
X5149494Y2175002D01*
G37*
G36*
X5249468Y2375001D02*
G01*
X5244490Y2369972D01*
X5244490Y2345791D01*
X5281472Y2345791D01*
X5281472Y2312771D01*
X5244490Y2312771D01*
X5244490Y2290013D01*
X5249468Y2284984D01*
X5329478Y2284984D01*
X5334508Y2290013D01*
X5334508Y2369972D01*
X5329478Y2375001D01*
G37*
G36*
X5090515Y2375001D02*
G01*
X5085486Y2369972D01*
X5085486Y2290013D01*
X5090515Y2284984D01*
X5169509Y2284984D01*
X5174488Y2290013D01*
X5174488Y2312771D01*
X5136489Y2312771D01*
X5136489Y2345791D01*
X5174488Y2345791D01*
X5174488Y2369972D01*
X5169509Y2375001D01*
G37*
G36*
X3969969Y2085492D02*
G01*
X3964990Y2080514D01*
X3964990Y2000504D01*
X3969969Y1995474D01*
X4049979Y1995474D01*
X4055008Y2000504D01*
X4055008Y2080514D01*
X4049979Y2085492D01*
X4025798Y2085492D01*
X4025798Y2048510D01*
X3992778Y2048510D01*
X3992778Y2085492D01*
G37*
G36*
X3969969Y2244496D02*
G01*
X3964990Y2239467D01*
X3964990Y2160473D01*
X3969969Y2155494D01*
X3992778Y2155494D01*
X3992778Y2193493D01*
X4025798Y2193493D01*
X4025798Y2155494D01*
X4049979Y2155494D01*
X4055008Y2160473D01*
X4055008Y2239467D01*
X4049979Y2244496D01*
G37*
D10*
G01*
X4189996Y5285003D03*
D11*
G01*
X3569995Y5285003D03*
D10*
G01*
X4189996Y4915001D03*
D11*
G01*
X3569995Y4915001D03*
D10*
G01*
X2049995Y5285003D03*
D11*
G01*
X1429994Y5285003D03*
D10*
G01*
X2049995Y4915001D03*
D11*
G01*
X1429994Y4915001D03*
D12*
G01*
X1349997Y1070000D03*
G01*
X1349997Y929995D03*
D13*
G01*
X4369993Y459994D03*
G01*
X4509998Y459994D03*
D14*
G01*
X3049993Y1020000D03*
G01*
X3189998Y1020000D03*
D15*
G01*
X124993Y1164996D03*
G01*
X124993Y1070000D03*
G01*
X124993Y975004D03*
D16*
G01*
X395008Y975004D03*
G01*
X395008Y1070000D03*
G01*
X395008Y1164996D03*
D17*
G01*
X3759987Y249237D03*
G01*
X3659987Y249237D03*
G01*
X3559987Y249237D03*
D18*
G01*
X3354997Y110743D03*
G01*
X3965003Y110743D03*
D19*
G01*
X745083Y975004D03*
G01*
X745083Y1070000D03*
G01*
X745083Y1164996D03*
G01*
X974902Y1164996D03*
G01*
X974902Y1070000D03*
G01*
X974902Y975004D03*
D20*
G01*
X3599980Y1064996D03*
G01*
X3599980Y875004D03*
G01*
X3819994Y1064996D03*
G01*
X3820020Y875004D03*
G01*
X3819994Y970000D03*
D21*
G01*
X4709998Y1090002D03*
G01*
X4569993Y1090002D03*
D13*
G01*
X399999Y2029993D03*
G01*
X540003Y2029993D03*
D22*
G01*
X5069992Y1765084D03*
G01*
X5069992Y1594904D03*
D23*
G01*
X5319991Y1765084D03*
G01*
X5319991Y1594904D03*
D24*
G01*
X4189158Y1939493D03*
G01*
X4189158Y2066493D03*
G01*
X4189158Y2193493D03*
G01*
X4189158Y2320493D03*
D25*
G01*
X4770818Y2320493D03*
G01*
X4770818Y2193493D03*
G01*
X4770818Y2066493D03*
G01*
X4770818Y1939493D03*
D26*
G01*
X4479988Y2129993D03*
D27*
G01*
X1890013Y1968474D03*
G01*
X1890013Y2095474D03*
G01*
X1890013Y2222474D03*
G01*
X1890013Y2349474D03*
G01*
X1890013Y2476474D03*
G01*
X1890013Y2603474D03*
G01*
X1890013Y2730474D03*
G01*
X1890013Y2857474D03*
G01*
X1890013Y2984474D03*
G01*
X1890013Y3111474D03*
G01*
X1890013Y3238474D03*
G01*
X1890013Y3365474D03*
G01*
X1890013Y3492474D03*
G01*
X1890013Y3619474D03*
D28*
G01*
X2218512Y3771493D03*
G01*
X2345512Y3771493D03*
G01*
X2472512Y3771493D03*
G01*
X2599512Y3771493D03*
G01*
X2726512Y3771493D03*
G01*
X2853512Y3771468D03*
G01*
X2980512Y3771468D03*
G01*
X3107512Y3771468D03*
G01*
X3234512Y3771468D03*
G01*
X3361512Y3771468D03*
D27*
G01*
X3689984Y3619474D03*
G01*
X3689984Y3492474D03*
G01*
X3689984Y3365474D03*
G01*
X3689984Y3238474D03*
G01*
X3689984Y3111474D03*
G01*
X3689984Y2984474D03*
G01*
X3689984Y2857474D03*
G01*
X3689984Y2730474D03*
G01*
X3689984Y2603474D03*
G01*
X3689984Y2476474D03*
G01*
X3689984Y2349474D03*
G01*
X3689984Y2222474D03*
G01*
X3689984Y2095474D03*
G01*
X3689984Y1968474D03*
D29*
G01*
X2688297Y2722791D03*
M02*
