G04 Layer: BottomSolderMaskLayer*
G04 EasyEDA v6.5.42, 2024-04-23 23:59:32*
G04 6f1416cd65ae409284c29a2362dae36f,3bb721cc424b4652afb4738f699644a2,10*
G04 Gerber Generator version 0.2*
G04 Scale: 100 percent, Rotated: No, Reflected: No *
G04 Dimensions in millimeters *
G04 leading zeros omitted , absolute positions ,4 integer and 5 decimal *
%FSLAX45Y45*%
%MOMM*%

%AMMACRO1*1,1,$1,$2,$3*1,1,$1,$4,$5*1,1,$1,0-$2,0-$3*1,1,$1,0-$4,0-$5*20,1,$1,$2,$3,$4,$5,0*20,1,$1,$4,$5,0-$2,0-$3,0*20,1,$1,0-$2,0-$3,0-$4,0-$5,0*20,1,$1,0-$4,0-$5,$2,$3,0*4,1,4,$2,$3,$4,$5,0-$2,0-$3,0-$4,0-$5,$2,$3,0*%
%ADD10MACRO1,0.1016X0.9X0.55X-0.9X0.55*%
%ADD11MACRO1,0.1016X0.45X-0.4X0.45X0.4*%
%ADD12MACRO1,0.1016X0.4X0.45X-0.4X0.45*%
%ADD13MACRO1,0.1016X-0.675X-0.705X0.675X-0.705*%
%ADD14MACRO1,0.1016X-0.675X0.705X0.675X0.705*%
%ADD15C,1.9016*%
%ADD16MACRO1,0.1016X-0.9X-0.9X0.9X-0.9*%
%ADD17MACRO1,0.102X0.55X0.3X-0.55X0.3*%
%ADD18R,0.9656X0.9081*%
%ADD19MACRO1,0.1016X-0.4032X0.432X-0.4032X-0.432*%
%ADD20MACRO1,0.1016X0.4032X0.432X0.4032X-0.432*%
%ADD21MACRO1,0.1016X0.4032X-0.432X0.4032X0.432*%
%ADD22MACRO1,0.1016X-0.4032X-0.432X-0.4032X0.432*%
%ADD23MACRO1,0.1016X0.3X0.4X-0.3X0.4*%
%ADD24MACRO1,0.1016X0.5X-0.35X0.5X0.35*%
%ADD25MACRO1,0.1016X0.536X-0.266X0.536X0.266*%
%ADD26R,1.1000X0.7000*%
%ADD27MACRO1,0.1016X0.2X0.7X-0.2X0.7*%
%ADD28O,1.1516106X1.9516090000000001*%
%ADD29MACRO1,0.1016X-0.4X-0.45X0.4X-0.45*%
%ADD30MACRO1,0.1016X0.7425X-0.864X0.7425X0.864*%
%ADD31MACRO1,0.1016X-0.7425X-0.864X-0.7425X0.864*%
%ADD32MACRO1,0.1016X0.4X0.4X-0.4X0.4*%
%ADD33MACRO1,0.1016X0.6X-0.3X0.6X0.3*%
%ADD34R,2.5016X3.4016*%
%ADD35MACRO1,0.1016X1.05X-0.475X1.05X0.475*%
%ADD36MACRO1,0.1016X0.475X-1.05X0.475X1.05*%
%ADD37MACRO1,0.1016X-2.5X-2.5X2.5X-2.5*%
%ADD38MACRO1,0.1016X-0.889X0.889X0.889X0.889*%
%ADD39C,1.8796*%

%LPD*%
D10*
G01*
X4189991Y5285002D03*
G01*
X3569992Y5285003D03*
G01*
X4189991Y4915001D03*
G01*
X3569992Y4915001D03*
G01*
X2049995Y5285002D03*
G01*
X1429997Y5285003D03*
G01*
X2049995Y4915001D03*
G01*
X1429997Y4915001D03*
D11*
G01*
X1349997Y1069997D03*
G01*
X1349997Y929998D03*
D12*
G01*
X4369991Y459999D03*
G01*
X4509990Y459999D03*
G01*
X3049993Y1019997D03*
G01*
X3189993Y1019997D03*
D13*
G01*
X1609996Y500001D03*
D14*
G01*
X1609996Y299996D03*
D15*
G01*
X3696995Y640003D03*
D16*
G01*
X3442992Y639998D03*
D17*
G01*
X124992Y1164993D03*
G01*
X124992Y1069997D03*
G01*
X124992Y975001D03*
G01*
X395003Y975001D03*
G01*
X395003Y1069997D03*
G01*
X395003Y1164993D03*
D18*
G01*
X589991Y1094663D03*
G01*
X589991Y1245311D03*
G01*
X1350010Y324662D03*
G01*
X1350010Y475335D03*
D19*
G01*
X295324Y4129991D03*
D20*
G01*
X144674Y4129991D03*
D21*
G01*
X5054664Y2719994D03*
D22*
G01*
X5205314Y2719994D03*
D21*
G01*
X984672Y4899990D03*
D22*
G01*
X1135322Y4899990D03*
D23*
G01*
X3759992Y249240D03*
G01*
X3659992Y249240D03*
G01*
X3559992Y249240D03*
D24*
G01*
X3354992Y110740D03*
G01*
X3964990Y110738D03*
D25*
G01*
X745088Y975001D03*
G01*
X745088Y1069997D03*
G01*
X745088Y1164993D03*
G01*
X974907Y1164993D03*
G01*
X974907Y1069997D03*
G01*
X974907Y975001D03*
D26*
G01*
X3599992Y1064996D03*
G01*
X3599992Y875004D03*
G01*
X3820007Y1064996D03*
G01*
X3820007Y875004D03*
G01*
X3820007Y970000D03*
D27*
G01*
X2449997Y492495D03*
G01*
X2384999Y492495D03*
G01*
X2319995Y492495D03*
G01*
X2254991Y492495D03*
G01*
X2189993Y492495D03*
D28*
G01*
X2677490Y197510D03*
G01*
X1962505Y542493D03*
G01*
X1962505Y202488D03*
G01*
X2677490Y542493D03*
D29*
G01*
X4709990Y1089997D03*
G01*
X4569990Y1089997D03*
D12*
G01*
X399999Y2029995D03*
G01*
X539998Y2029995D03*
D30*
G01*
X270748Y2459995D03*
D31*
G01*
X589249Y2459995D03*
D32*
G01*
X5069989Y1765086D03*
G01*
X5069989Y1594906D03*
G01*
X5319989Y1765086D03*
G01*
X5319989Y1594906D03*
D19*
G01*
X5265314Y2129995D03*
D20*
G01*
X5114664Y2129995D03*
D19*
G01*
X5285314Y2329995D03*
D20*
G01*
X5134664Y2329995D03*
D18*
G01*
X4009999Y2044674D03*
G01*
X4009999Y2195321D03*
D33*
G01*
X4189161Y1939495D03*
G01*
X4189161Y2066495D03*
G01*
X4189161Y2193495D03*
G01*
X4189161Y2320495D03*
G01*
X4770821Y2320495D03*
G01*
X4770821Y2193495D03*
G01*
X4770821Y2066495D03*
G01*
X4770821Y1939495D03*
D34*
G01*
X4480001Y2129993D03*
D35*
G01*
X1890019Y1968477D03*
G01*
X1890019Y2095477D03*
G01*
X1890019Y2222477D03*
G01*
X1890019Y2349477D03*
G01*
X1890019Y2476477D03*
G01*
X1890019Y2603477D03*
G01*
X1890019Y2730477D03*
G01*
X1890019Y2857477D03*
G01*
X1890019Y2984477D03*
G01*
X1890019Y3111477D03*
G01*
X1890019Y3238477D03*
G01*
X1890019Y3365477D03*
G01*
X1890019Y3492477D03*
G01*
X1890019Y3619477D03*
D36*
G01*
X2218504Y3771498D03*
G01*
X2345504Y3771498D03*
G01*
X2472504Y3771498D03*
G01*
X2599504Y3771498D03*
G01*
X2726504Y3771498D03*
G01*
X2853504Y3771473D03*
G01*
X2980504Y3771473D03*
G01*
X3107504Y3771473D03*
G01*
X3234504Y3771473D03*
G01*
X3361504Y3771473D03*
D35*
G01*
X3689990Y3619477D03*
G01*
X3689990Y3492477D03*
G01*
X3689990Y3365477D03*
G01*
X3689990Y3238477D03*
G01*
X3689990Y3111477D03*
G01*
X3689990Y2984477D03*
G01*
X3689990Y2857477D03*
G01*
X3689990Y2730477D03*
G01*
X3689990Y2603477D03*
G01*
X3689990Y2476477D03*
G01*
X3689990Y2349477D03*
G01*
X3689990Y2222477D03*
G01*
X3689990Y2095477D03*
G01*
X3689990Y1968477D03*
D37*
G01*
X2688301Y2722791D03*
D38*
G01*
X2389995Y4559990D03*
D39*
G01*
X2643987Y4559985D03*
G01*
X2897987Y4559985D03*
G01*
X3151987Y4559985D03*
M02*
