G04 Layer: BottomLayer*
G04 EasyEDA v6.5.42, 2024-04-23 23:59:32*
G04 6f1416cd65ae409284c29a2362dae36f,3bb721cc424b4652afb4738f699644a2,10*
G04 Gerber Generator version 0.2*
G04 Scale: 100 percent, Rotated: No, Reflected: No *
G04 Dimensions in millimeters *
G04 leading zeros omitted , absolute positions ,4 integer and 5 decimal *
%FSLAX45Y45*%
%MOMM*%

%AMMACRO1*21,1,$1,$2,0,0,$3*%
%ADD10C,0.2540*%
%ADD11MACRO1,1.8X1.1X0.0000*%
%ADD12MACRO1,0.8X0.9X90.0000*%
%ADD13MACRO1,0.8X0.9X0.0000*%
%ADD14R,1.3500X1.4100*%
%ADD15MACRO1,1.35X1.41X0.0000*%
%ADD16MACRO1,1.1X0.6X0.0000*%
%ADD17R,0.8640X0.8065*%
%ADD18MACRO1,0.864X0.8065X0.0000*%
%ADD19MACRO1,0.864X0.8065X-90.0000*%
%ADD20MACRO1,0.864X0.8065X90.0000*%
%ADD21MACRO1,0.6X0.8X0.0000*%
%ADD22MACRO1,0.7X1X90.0000*%
%ADD23MACRO1,0.532X1.072X90.0000*%
%ADD24MACRO1,0.6X1X-90.0000*%
%ADD25MACRO1,0.4X1.4X0.0000*%
%ADD26MACRO1,1.728X1.485X90.0000*%
%ADD27MACRO1,0.8X0.8X0.0000*%
%ADD28MACRO1,0.6X1.2X90.0000*%
%ADD29MACRO1,3.3X2.4X-90.0000*%
%ADD30MACRO1,0.95X2.1X90.0000*%
%ADD31MACRO1,2.1X0.95X90.0000*%
%ADD32MACRO1,5X5X0.0000*%
%ADD33C,1.8000*%
%ADD34MACRO1,1.8X1.8X0.0000*%
%ADD35O,1.0500106X1.850009*%
%ADD36R,1.7780X1.7780*%
%ADD37C,1.7780*%
%ADD38C,0.6200*%
%ADD39C,0.0154*%

%LPD*%
G36*
X500532Y25908D02*
G01*
X469900Y26873D01*
X440283Y29718D01*
X410870Y34391D01*
X381812Y40894D01*
X353212Y49225D01*
X325170Y59334D01*
X297840Y71170D01*
X271322Y84734D01*
X245719Y99923D01*
X221081Y116636D01*
X197561Y134924D01*
X175260Y154635D01*
X154178Y175717D01*
X134518Y198069D01*
X116281Y221589D01*
X99568Y246227D01*
X84429Y271881D01*
X70916Y298450D01*
X59080Y325780D01*
X49022Y353822D01*
X40741Y382422D01*
X34290Y411480D01*
X29616Y440893D01*
X26822Y470560D01*
X25908Y500532D01*
X25908Y933450D01*
X26720Y937412D01*
X29006Y940765D01*
X32410Y942898D01*
X36372Y943610D01*
X40335Y942644D01*
X43586Y940257D01*
X45669Y936802D01*
X46685Y933805D01*
X49784Y928878D01*
X53898Y924814D01*
X58775Y921715D01*
X64262Y919835D01*
X70561Y919124D01*
X91135Y919124D01*
X91135Y953668D01*
X36068Y953668D01*
X32156Y954430D01*
X28905Y956665D01*
X26670Y959916D01*
X25908Y963828D01*
X25908Y986180D01*
X26670Y990092D01*
X28905Y993394D01*
X32156Y995578D01*
X36068Y996340D01*
X91135Y996340D01*
X91135Y1003960D01*
X91897Y1007821D01*
X94132Y1011123D01*
X97434Y1013307D01*
X101295Y1014120D01*
X148691Y1014120D01*
X152552Y1013307D01*
X155854Y1011123D01*
X158089Y1007821D01*
X158851Y1003960D01*
X158851Y996340D01*
X205892Y996340D01*
X205892Y1004468D01*
X205181Y1010767D01*
X203250Y1016203D01*
X201320Y1020622D01*
X201320Y1024382D01*
X203250Y1028801D01*
X205181Y1034237D01*
X205892Y1040587D01*
X205892Y1099413D01*
X205181Y1105763D01*
X203250Y1111199D01*
X201320Y1115618D01*
X201320Y1119378D01*
X203250Y1123797D01*
X205181Y1129233D01*
X205892Y1135583D01*
X205892Y1143660D01*
X158851Y1143660D01*
X158851Y1136091D01*
X158089Y1132179D01*
X155854Y1128877D01*
X152552Y1126693D01*
X148691Y1125931D01*
X101295Y1125931D01*
X97434Y1126693D01*
X94132Y1128877D01*
X91897Y1132179D01*
X91135Y1136091D01*
X91135Y1143660D01*
X36068Y1143660D01*
X32156Y1144422D01*
X28905Y1146606D01*
X26670Y1149908D01*
X25908Y1153820D01*
X25908Y1176172D01*
X26670Y1180084D01*
X28905Y1183386D01*
X32156Y1185570D01*
X36068Y1186332D01*
X91135Y1186332D01*
X91135Y1220927D01*
X70561Y1220927D01*
X64262Y1220216D01*
X58775Y1218285D01*
X53898Y1215186D01*
X49784Y1211122D01*
X46685Y1206195D01*
X45669Y1203198D01*
X43586Y1199743D01*
X40335Y1197356D01*
X36372Y1196390D01*
X32410Y1197102D01*
X29006Y1199286D01*
X26720Y1202588D01*
X25908Y1206550D01*
X25908Y4974640D01*
X26365Y4979365D01*
X26009Y5009286D01*
X27533Y5038648D01*
X30835Y5067909D01*
X35915Y5096865D01*
X42824Y5125466D01*
X51511Y5153609D01*
X61874Y5181142D01*
X73964Y5207965D01*
X87680Y5233974D01*
X103022Y5259120D01*
X119837Y5283250D01*
X138125Y5306263D01*
X157835Y5328107D01*
X178866Y5348732D01*
X201117Y5367985D01*
X224536Y5385816D01*
X248970Y5402173D01*
X274421Y5416956D01*
X300736Y5430113D01*
X327761Y5441696D01*
X355498Y5451500D01*
X383794Y5459577D01*
X412546Y5465927D01*
X441604Y5470448D01*
X470916Y5473141D01*
X500532Y5474055D01*
X4999431Y5474055D01*
X5030063Y5473090D01*
X5059730Y5470296D01*
X5089144Y5465622D01*
X5118201Y5459069D01*
X5146802Y5450738D01*
X5174792Y5440629D01*
X5202123Y5428792D01*
X5228640Y5415280D01*
X5254294Y5400090D01*
X5278882Y5383326D01*
X5302402Y5365038D01*
X5324754Y5345328D01*
X5345785Y5324297D01*
X5365445Y5301945D01*
X5383682Y5278374D01*
X5400446Y5253736D01*
X5415584Y5228082D01*
X5429097Y5201564D01*
X5440883Y5174234D01*
X5450941Y5146192D01*
X5459222Y5117592D01*
X5465724Y5088483D01*
X5470347Y5059070D01*
X5473141Y5029454D01*
X5474106Y4999431D01*
X5474055Y500380D01*
X5473090Y469900D01*
X5470296Y440283D01*
X5465622Y410870D01*
X5459069Y381812D01*
X5450738Y353212D01*
X5440629Y325170D01*
X5428792Y297840D01*
X5415280Y271322D01*
X5400090Y245719D01*
X5383326Y221081D01*
X5365038Y197561D01*
X5345328Y175260D01*
X5324297Y154178D01*
X5301945Y134518D01*
X5278374Y116281D01*
X5253736Y99568D01*
X5228082Y84429D01*
X5201564Y70916D01*
X5174234Y59080D01*
X5146192Y49022D01*
X5117592Y40741D01*
X5088483Y34290D01*
X5059070Y29616D01*
X5029454Y26822D01*
X4999431Y25908D01*
X3834841Y25908D01*
X3830777Y26771D01*
X3827373Y29159D01*
X3825240Y32664D01*
X3824681Y36779D01*
X3825798Y40792D01*
X3828440Y43992D01*
X3832148Y45872D01*
X3835603Y46837D01*
X3846220Y51562D01*
X3855974Y57912D01*
X3864660Y65633D01*
X3871976Y74472D01*
X3875328Y77165D01*
X3879494Y78181D01*
X3883710Y77419D01*
X3887215Y74980D01*
X3889400Y71272D01*
X3891737Y64465D01*
X3894785Y59639D01*
X3898900Y55524D01*
X3903776Y52476D01*
X3909263Y50546D01*
X3915562Y49834D01*
X4014419Y49834D01*
X4020769Y50546D01*
X4026204Y52476D01*
X4031081Y55524D01*
X4035196Y59639D01*
X4038295Y64516D01*
X4040174Y70002D01*
X4040886Y76301D01*
X4040886Y145186D01*
X4040174Y151485D01*
X4038295Y156972D01*
X4035196Y161848D01*
X4031081Y165963D01*
X4026204Y169011D01*
X4020769Y170942D01*
X4014419Y171653D01*
X3915562Y171653D01*
X3909263Y170942D01*
X3903776Y169011D01*
X3898900Y165963D01*
X3894785Y161848D01*
X3891940Y157327D01*
X3889095Y154381D01*
X3885285Y152755D01*
X3881170Y152806D01*
X3877411Y154533D01*
X3874617Y157530D01*
X3872026Y161899D01*
X3864660Y170840D01*
X3855974Y178562D01*
X3846220Y184912D01*
X3835603Y189636D01*
X3824173Y192735D01*
X3820414Y193954D01*
X3817365Y196545D01*
X3815587Y200050D01*
X3815232Y203962D01*
X3815892Y209804D01*
X3815892Y288645D01*
X3815181Y294995D01*
X3813301Y300431D01*
X3810203Y305358D01*
X3806088Y309422D01*
X3801211Y312521D01*
X3795725Y314452D01*
X3792575Y314807D01*
X3788968Y315925D01*
X3785971Y318262D01*
X3784092Y321513D01*
X3783533Y325272D01*
X3784396Y328930D01*
X3786530Y332079D01*
X4232960Y778306D01*
X4236262Y780542D01*
X4240174Y781304D01*
X4699508Y781304D01*
X4707534Y782116D01*
X4714748Y784301D01*
X4721453Y787857D01*
X4727651Y792988D01*
X4916932Y982268D01*
X4922062Y988466D01*
X4925618Y995171D01*
X4927803Y1002385D01*
X4928616Y1010412D01*
X4928616Y1354328D01*
X4929327Y1358138D01*
X4931460Y1361389D01*
X4934254Y1364335D01*
X4939639Y1372311D01*
X4943652Y1381099D01*
X4946040Y1390446D01*
X4946904Y1400048D01*
X4946040Y1409649D01*
X4943652Y1418996D01*
X4939639Y1427784D01*
X4934254Y1435760D01*
X4927600Y1442720D01*
X4919827Y1448460D01*
X4911191Y1452829D01*
X4901996Y1455623D01*
X4892446Y1456893D01*
X4882794Y1456436D01*
X4873345Y1454404D01*
X4864404Y1450848D01*
X4856175Y1445768D01*
X4848961Y1439418D01*
X4842865Y1431899D01*
X4838192Y1423466D01*
X4834991Y1414373D01*
X4833366Y1404874D01*
X4833366Y1395222D01*
X4834991Y1385722D01*
X4838192Y1376629D01*
X4842865Y1368196D01*
X4849164Y1360474D01*
X4850841Y1357477D01*
X4851400Y1354074D01*
X4851400Y1030122D01*
X4850638Y1026210D01*
X4848402Y1022908D01*
X4687011Y861517D01*
X4683709Y859282D01*
X4679797Y858519D01*
X4220464Y858519D01*
X4212437Y857707D01*
X4205224Y855522D01*
X4198518Y851966D01*
X4192320Y846886D01*
X3706571Y361340D01*
X3703015Y359054D01*
X3698849Y358394D01*
X3694785Y359460D01*
X3691534Y362051D01*
X3686962Y367639D01*
X3667658Y386943D01*
X3661410Y392074D01*
X3654755Y395630D01*
X3647541Y397814D01*
X3638854Y398576D01*
X3386023Y394817D01*
X3382010Y395579D01*
X3378606Y397916D01*
X3376371Y401421D01*
X3375761Y405485D01*
X3376777Y409448D01*
X3379317Y412699D01*
X3382924Y414680D01*
X3391204Y417220D01*
X3399790Y421589D01*
X3407562Y427329D01*
X3414268Y434289D01*
X3419652Y442264D01*
X3423615Y451053D01*
X3426053Y460400D01*
X3426866Y470001D01*
X3426053Y479602D01*
X3423615Y488950D01*
X3419652Y497738D01*
X3411016Y510184D01*
X3410305Y514096D01*
X3411118Y517906D01*
X3413302Y521157D01*
X3416604Y523341D01*
X3420465Y524103D01*
X3532428Y524103D01*
X3538728Y524814D01*
X3544214Y526694D01*
X3549091Y529793D01*
X3553206Y533908D01*
X3556254Y538784D01*
X3558184Y544271D01*
X3558895Y550570D01*
X3558895Y729437D01*
X3558184Y735736D01*
X3556254Y741222D01*
X3553206Y746099D01*
X3549091Y750214D01*
X3544214Y753262D01*
X3538728Y755192D01*
X3532428Y755904D01*
X3353562Y755904D01*
X3347262Y755192D01*
X3341776Y753262D01*
X3336899Y750214D01*
X3332784Y746099D01*
X3329686Y741222D01*
X3327806Y735736D01*
X3327095Y729437D01*
X3327095Y550570D01*
X3327806Y544271D01*
X3329838Y538581D01*
X3331006Y535990D01*
X3331362Y533196D01*
X3331362Y515975D01*
X3330803Y512572D01*
X3329127Y509574D01*
X3322878Y501853D01*
X3318154Y493420D01*
X3314954Y484327D01*
X3313328Y474827D01*
X3313328Y465175D01*
X3314954Y455676D01*
X3318154Y446582D01*
X3322878Y438150D01*
X3328924Y430631D01*
X3336188Y424281D01*
X3344367Y419201D01*
X3353358Y415645D01*
X3358692Y414477D01*
X3362502Y412750D01*
X3365296Y409651D01*
X3366617Y405638D01*
X3366211Y401472D01*
X3364128Y397814D01*
X3360775Y395325D01*
X3356660Y394360D01*
X2969920Y388620D01*
X2961894Y387705D01*
X2954731Y385419D01*
X2948076Y381711D01*
X2942336Y376885D01*
X2936951Y370027D01*
X2751582Y73406D01*
X2749296Y70815D01*
X2746349Y69189D01*
X2742946Y68630D01*
X2717596Y68630D01*
X2713786Y69342D01*
X2710535Y71475D01*
X2708300Y74676D01*
X2707436Y78435D01*
X2708046Y82296D01*
X2710078Y85598D01*
X2713177Y87934D01*
X2716682Y89611D01*
X2726385Y96215D01*
X2734970Y104190D01*
X2742285Y113334D01*
X2748127Y123494D01*
X2752394Y134416D01*
X2755036Y145796D01*
X2755900Y157886D01*
X2755900Y237134D01*
X2755036Y249174D01*
X2752394Y260604D01*
X2748127Y271526D01*
X2742285Y281635D01*
X2734970Y290830D01*
X2726385Y298754D01*
X2716682Y305358D01*
X2706166Y310438D01*
X2694940Y313893D01*
X2683357Y315671D01*
X2671673Y315671D01*
X2660091Y313893D01*
X2648864Y310438D01*
X2638298Y305358D01*
X2628646Y298754D01*
X2620060Y290830D01*
X2612745Y281635D01*
X2606903Y271526D01*
X2602585Y260604D01*
X2599994Y249174D01*
X2599080Y237134D01*
X2599080Y157886D01*
X2599994Y145796D01*
X2602585Y134416D01*
X2606903Y123494D01*
X2612745Y113334D01*
X2620060Y104190D01*
X2628646Y96215D01*
X2638298Y89611D01*
X2641854Y87934D01*
X2644952Y85598D01*
X2646984Y82296D01*
X2647594Y78435D01*
X2646730Y74676D01*
X2644495Y71475D01*
X2641244Y69342D01*
X2637434Y68630D01*
X1990699Y68630D01*
X1986686Y69443D01*
X1983333Y71780D01*
X1981149Y75234D01*
X1980539Y79298D01*
X1981606Y83261D01*
X1984095Y86512D01*
X1987702Y88493D01*
X1991156Y89509D01*
X2001672Y94640D01*
X2011375Y101193D01*
X2019960Y109169D01*
X2027275Y118364D01*
X2033117Y128473D01*
X2037384Y139395D01*
X2040026Y150825D01*
X2040889Y162864D01*
X2040889Y242112D01*
X2040026Y254152D01*
X2037384Y265582D01*
X2033117Y276504D01*
X2027275Y286664D01*
X2019960Y295808D01*
X2011375Y303784D01*
X2001672Y310388D01*
X1991156Y315468D01*
X1979930Y318922D01*
X1968347Y320649D01*
X1956663Y320649D01*
X1945081Y318922D01*
X1933854Y315468D01*
X1923288Y310388D01*
X1913636Y303784D01*
X1905050Y295808D01*
X1897735Y286664D01*
X1891893Y276504D01*
X1887575Y265582D01*
X1884984Y254152D01*
X1884070Y242112D01*
X1884070Y162864D01*
X1884984Y150825D01*
X1887575Y139395D01*
X1891893Y128473D01*
X1897735Y118364D01*
X1905050Y109169D01*
X1913636Y101193D01*
X1923288Y94640D01*
X1933854Y89509D01*
X1937308Y88493D01*
X1940864Y86512D01*
X1943404Y83261D01*
X1944420Y79298D01*
X1943811Y75234D01*
X1941677Y71780D01*
X1938324Y69443D01*
X1934311Y68630D01*
X1900174Y68630D01*
X1896313Y69392D01*
X1893011Y71577D01*
X1706372Y258216D01*
X1704187Y261518D01*
X1703425Y265379D01*
X1703425Y369925D01*
X1702714Y376224D01*
X1700784Y381711D01*
X1697685Y386588D01*
X1693621Y390702D01*
X1689557Y394208D01*
X1687982Y397967D01*
X1687982Y402031D01*
X1689557Y405790D01*
X1693621Y409295D01*
X1697685Y413410D01*
X1700784Y418287D01*
X1702714Y423773D01*
X1703425Y430072D01*
X1703425Y458419D01*
X1650085Y458419D01*
X1650085Y406552D01*
X1649323Y402691D01*
X1647139Y399389D01*
X1643837Y397154D01*
X1639925Y396392D01*
X1580032Y396392D01*
X1576171Y397154D01*
X1572869Y399389D01*
X1570685Y402691D01*
X1569872Y406552D01*
X1569872Y458419D01*
X1516583Y458419D01*
X1516583Y430072D01*
X1517294Y423773D01*
X1519224Y418287D01*
X1522272Y413410D01*
X1526387Y409295D01*
X1530451Y405790D01*
X1532026Y402031D01*
X1532026Y397967D01*
X1530451Y394208D01*
X1526387Y390702D01*
X1522272Y386588D01*
X1519224Y381711D01*
X1517294Y376224D01*
X1516583Y369925D01*
X1516583Y348742D01*
X1515821Y344881D01*
X1513636Y341579D01*
X1510334Y339344D01*
X1506423Y338582D01*
X1429258Y338582D01*
X1425397Y339344D01*
X1422095Y341579D01*
X1419860Y344881D01*
X1419098Y348742D01*
X1419098Y364439D01*
X1418386Y370738D01*
X1416507Y376224D01*
X1413408Y381101D01*
X1409293Y385216D01*
X1404416Y388264D01*
X1398320Y390398D01*
X1394764Y392531D01*
X1392377Y395935D01*
X1391513Y399999D01*
X1392377Y404063D01*
X1394764Y407466D01*
X1398320Y409600D01*
X1404416Y411734D01*
X1409293Y414782D01*
X1413408Y418896D01*
X1416507Y423773D01*
X1418386Y429259D01*
X1419098Y435559D01*
X1419098Y515061D01*
X1418386Y521411D01*
X1416507Y526846D01*
X1413408Y531774D01*
X1409293Y535838D01*
X1404416Y538937D01*
X1398930Y540867D01*
X1392631Y541578D01*
X1307388Y541578D01*
X1301038Y540867D01*
X1295603Y538937D01*
X1290675Y535838D01*
X1286611Y531774D01*
X1283512Y526846D01*
X1282192Y523036D01*
X1280058Y519531D01*
X1276807Y517143D01*
X1272794Y516229D01*
X1268780Y516940D01*
X1265377Y519176D01*
X1251559Y532993D01*
X1249375Y536295D01*
X1248613Y540207D01*
X1248613Y909828D01*
X1249375Y913688D01*
X1251559Y916990D01*
X1287983Y953363D01*
X1291234Y955598D01*
X1295146Y956360D01*
X1321155Y956360D01*
X1321155Y982370D01*
X1321917Y986231D01*
X1324102Y989533D01*
X1335684Y1001115D01*
X1338986Y1003300D01*
X1342847Y1004062D01*
X1368704Y1004062D01*
X1372565Y1003300D01*
X1375867Y1001115D01*
X1378051Y997813D01*
X1378864Y993902D01*
X1378864Y956360D01*
X1420926Y956360D01*
X1420926Y969416D01*
X1420215Y975766D01*
X1418285Y981202D01*
X1415186Y986129D01*
X1411122Y990193D01*
X1409242Y991412D01*
X1406296Y994206D01*
X1404670Y997966D01*
X1404670Y1002030D01*
X1406296Y1005789D01*
X1409242Y1008583D01*
X1411122Y1009802D01*
X1415186Y1013866D01*
X1418285Y1018794D01*
X1420215Y1024229D01*
X1420926Y1030579D01*
X1420926Y1109421D01*
X1420215Y1115720D01*
X1418285Y1121206D01*
X1415186Y1126083D01*
X1411122Y1130198D01*
X1406194Y1133297D01*
X1400759Y1135176D01*
X1394409Y1135888D01*
X1305560Y1135888D01*
X1299260Y1135176D01*
X1293774Y1133297D01*
X1288897Y1130198D01*
X1284782Y1126083D01*
X1281734Y1121206D01*
X1279702Y1115415D01*
X1277569Y1111859D01*
X1274165Y1109472D01*
X1270101Y1108608D01*
X1058519Y1108608D01*
X1054303Y1109522D01*
X1050848Y1112113D01*
X1048766Y1115872D01*
X1048410Y1120140D01*
X1049883Y1124204D01*
X1051763Y1127201D01*
X1053693Y1132636D01*
X1054404Y1138986D01*
X1054404Y1191006D01*
X1053693Y1197356D01*
X1051763Y1202791D01*
X1048715Y1207719D01*
X1044600Y1211783D01*
X1039723Y1214882D01*
X1034237Y1216812D01*
X1027937Y1217523D01*
X921867Y1217523D01*
X915568Y1216812D01*
X910082Y1214882D01*
X905205Y1211783D01*
X901090Y1207719D01*
X897991Y1202791D01*
X896112Y1197356D01*
X895400Y1191006D01*
X895400Y1138986D01*
X896112Y1132636D01*
X897991Y1127201D01*
X900684Y1122883D01*
X902106Y1119378D01*
X902106Y1115618D01*
X900684Y1112113D01*
X897991Y1107795D01*
X896112Y1102360D01*
X895400Y1096010D01*
X895400Y1043990D01*
X896112Y1037640D01*
X897991Y1032205D01*
X900684Y1027887D01*
X902106Y1024382D01*
X902106Y1020622D01*
X900684Y1017066D01*
X897991Y1012799D01*
X896112Y1007364D01*
X895400Y1001014D01*
X895400Y994664D01*
X941730Y994664D01*
X941730Y1007313D01*
X942543Y1011224D01*
X944727Y1014526D01*
X948029Y1016711D01*
X951890Y1017473D01*
X997864Y1017473D01*
X1001776Y1016711D01*
X1005078Y1014526D01*
X1007262Y1011224D01*
X1008024Y1007313D01*
X1008024Y994664D01*
X1054404Y994664D01*
X1054404Y1001014D01*
X1053693Y1007364D01*
X1051763Y1012799D01*
X1049883Y1015847D01*
X1048410Y1019860D01*
X1048766Y1024178D01*
X1050848Y1027937D01*
X1054303Y1030478D01*
X1058468Y1031392D01*
X1232255Y1031392D01*
X1236116Y1030630D01*
X1239418Y1028446D01*
X1241653Y1025144D01*
X1242415Y1021232D01*
X1241653Y1017371D01*
X1239418Y1014069D01*
X1183030Y957681D01*
X1177950Y951433D01*
X1174394Y944778D01*
X1172159Y937564D01*
X1171397Y929538D01*
X1171397Y520496D01*
X1172159Y512470D01*
X1174394Y505256D01*
X1177950Y498601D01*
X1183030Y492353D01*
X1227023Y448360D01*
X1233271Y443230D01*
X1239926Y439674D01*
X1247140Y437489D01*
X1255166Y436727D01*
X1271778Y436727D01*
X1275842Y435864D01*
X1279245Y433476D01*
X1281379Y429920D01*
X1283512Y423773D01*
X1286611Y418896D01*
X1290675Y414782D01*
X1295603Y411734D01*
X1301648Y409600D01*
X1305204Y407466D01*
X1307592Y404063D01*
X1308455Y399999D01*
X1307592Y395935D01*
X1305204Y392531D01*
X1301648Y390398D01*
X1295603Y388264D01*
X1290675Y385216D01*
X1286611Y381101D01*
X1283512Y376224D01*
X1281582Y370738D01*
X1280871Y364439D01*
X1280871Y284937D01*
X1281582Y278587D01*
X1283512Y273151D01*
X1286611Y268224D01*
X1290675Y264160D01*
X1295603Y261061D01*
X1301038Y259130D01*
X1307388Y258419D01*
X1392631Y258419D01*
X1398930Y259130D01*
X1403654Y260807D01*
X1407007Y261366D01*
X1506423Y261366D01*
X1510334Y260604D01*
X1513636Y258419D01*
X1515821Y255117D01*
X1516583Y251206D01*
X1516583Y230073D01*
X1517294Y223723D01*
X1519224Y218287D01*
X1522272Y213360D01*
X1526387Y209296D01*
X1531264Y206197D01*
X1536750Y204317D01*
X1543050Y203606D01*
X1647596Y203606D01*
X1651457Y202793D01*
X1654759Y200609D01*
X1812137Y43230D01*
X1814322Y39979D01*
X1815134Y36068D01*
X1814322Y32156D01*
X1812137Y28905D01*
X1808835Y26670D01*
X1804974Y25908D01*
G37*

%LPC*%
G36*
X504545Y324154D02*
G01*
X522579Y325577D01*
X540410Y328828D01*
X557784Y333857D01*
X574548Y340715D01*
X590550Y349199D01*
X605586Y359308D01*
X619455Y370890D01*
X632104Y383895D01*
X643382Y398068D01*
X653084Y413359D01*
X661162Y429564D01*
X667562Y446532D01*
X672185Y464007D01*
X674979Y481888D01*
X675894Y499973D01*
X674979Y518109D01*
X672185Y535990D01*
X667562Y553466D01*
X661162Y570433D01*
X653084Y586638D01*
X643382Y601929D01*
X632104Y616102D01*
X619455Y629107D01*
X605586Y640689D01*
X590550Y650798D01*
X574548Y659282D01*
X557784Y666140D01*
X540410Y671169D01*
X522579Y674420D01*
X504545Y675843D01*
X486409Y675386D01*
X468477Y673049D01*
X450850Y668883D01*
X433730Y662940D01*
X417322Y655269D01*
X401828Y645922D01*
X387299Y635050D01*
X374040Y622757D01*
X362051Y609142D01*
X351586Y594410D01*
X342646Y578662D01*
X335432Y562051D01*
X329895Y544779D01*
X326186Y527050D01*
X324358Y509066D01*
X324358Y490931D01*
X326186Y472948D01*
X329895Y455218D01*
X335432Y437946D01*
X342646Y421335D01*
X351586Y405587D01*
X362051Y390855D01*
X374040Y377240D01*
X387299Y364947D01*
X401828Y354076D01*
X417322Y344728D01*
X433730Y337058D01*
X450850Y331114D01*
X468477Y326948D01*
X486409Y324612D01*
G37*
G36*
X5004511Y324154D02*
G01*
X5022596Y325577D01*
X5040376Y328828D01*
X5057800Y333857D01*
X5074564Y340715D01*
X5090515Y349199D01*
X5105552Y359308D01*
X5119471Y370890D01*
X5132120Y383895D01*
X5143347Y398068D01*
X5153050Y413359D01*
X5161178Y429564D01*
X5167528Y446532D01*
X5172151Y464007D01*
X5174945Y481888D01*
X5175859Y499973D01*
X5174945Y518109D01*
X5172151Y535990D01*
X5167528Y553466D01*
X5161178Y570433D01*
X5153050Y586638D01*
X5143347Y601929D01*
X5132120Y616102D01*
X5119471Y629107D01*
X5105552Y640689D01*
X5090515Y650798D01*
X5074564Y659282D01*
X5057800Y666140D01*
X5040376Y671169D01*
X5022596Y674420D01*
X5004511Y675843D01*
X4986426Y675386D01*
X4968443Y673049D01*
X4950815Y668883D01*
X4933746Y662940D01*
X4917338Y655269D01*
X4901793Y645922D01*
X4887315Y635050D01*
X4874006Y622757D01*
X4862068Y609142D01*
X4851552Y594410D01*
X4842662Y578662D01*
X4835398Y562051D01*
X4829911Y544779D01*
X4826203Y527050D01*
X4824323Y509066D01*
X4824323Y490931D01*
X4826203Y472948D01*
X4829911Y455218D01*
X4835398Y437946D01*
X4842662Y421335D01*
X4851552Y405587D01*
X4862068Y390855D01*
X4874006Y377240D01*
X4887315Y364947D01*
X4901793Y354076D01*
X4917338Y344728D01*
X4933746Y337058D01*
X4950815Y331114D01*
X4968443Y326948D01*
X4986426Y324612D01*
G37*
G36*
X2122474Y352196D02*
G01*
X2132279Y353415D01*
X2141728Y356311D01*
X2150567Y360781D01*
X2158542Y366674D01*
X2165400Y373837D01*
X2170938Y382016D01*
X2175002Y391058D01*
X2177542Y400608D01*
X2178354Y410464D01*
X2177542Y420370D01*
X2173630Y435152D01*
X2173630Y451154D01*
X2165908Y451154D01*
X2161895Y451967D01*
X2150567Y460197D01*
X2141778Y464616D01*
X2131822Y467614D01*
X2122474Y468782D01*
X2112568Y468376D01*
X2102916Y466293D01*
X2093722Y462584D01*
X2085289Y457403D01*
X2077821Y450900D01*
X2071624Y443179D01*
X2066798Y434543D01*
X2063496Y425196D01*
X2061819Y415442D01*
X2061819Y405536D01*
X2063496Y395782D01*
X2066798Y386435D01*
X2071624Y377799D01*
X2077821Y370078D01*
X2085289Y363575D01*
X2093722Y358394D01*
X2102916Y354685D01*
X2112568Y352602D01*
G37*
G36*
X2522474Y352196D02*
G01*
X2532278Y353415D01*
X2541727Y356311D01*
X2550566Y360781D01*
X2558542Y366674D01*
X2565400Y373837D01*
X2570937Y382016D01*
X2575001Y391058D01*
X2577541Y400608D01*
X2578354Y410464D01*
X2577541Y420370D01*
X2575001Y429920D01*
X2570937Y438962D01*
X2565400Y447141D01*
X2558542Y454304D01*
X2550566Y460197D01*
X2541727Y464667D01*
X2532278Y467563D01*
X2522474Y468782D01*
X2512568Y468376D01*
X2508199Y467461D01*
X2503728Y467512D01*
X2499664Y469493D01*
X2496870Y472998D01*
X2495905Y477367D01*
X2495905Y561949D01*
X2495194Y568248D01*
X2494076Y571347D01*
X2493518Y575106D01*
X2494381Y578764D01*
X2496515Y581914D01*
X2893009Y978408D01*
X2896311Y980592D01*
X2900172Y981354D01*
X2974340Y981354D01*
X2977997Y980694D01*
X2981147Y978814D01*
X2983382Y975868D01*
X2984449Y972362D01*
X2984804Y969264D01*
X2986735Y963777D01*
X2989783Y958900D01*
X2993898Y954786D01*
X2998774Y951737D01*
X3004261Y949807D01*
X3010560Y949096D01*
X3089452Y949096D01*
X3095752Y949807D01*
X3101238Y951737D01*
X3106115Y954786D01*
X3110230Y958900D01*
X3111398Y960780D01*
X3114192Y963726D01*
X3117951Y965301D01*
X3122015Y965301D01*
X3125774Y963726D01*
X3128619Y960780D01*
X3129788Y958900D01*
X3133852Y954786D01*
X3138779Y951737D01*
X3144215Y949807D01*
X3150565Y949096D01*
X3163620Y949096D01*
X3163620Y991158D01*
X3126079Y991158D01*
X3122168Y991920D01*
X3118866Y994105D01*
X3116681Y997407D01*
X3115919Y1001318D01*
X3115919Y1027125D01*
X3116681Y1030986D01*
X3118866Y1034287D01*
X3130448Y1045870D01*
X3133750Y1048054D01*
X3137662Y1048867D01*
X3163620Y1048867D01*
X3163620Y1074826D01*
X3164382Y1078687D01*
X3166618Y1081989D01*
X3223006Y1138428D01*
X3226308Y1140612D01*
X3230219Y1141374D01*
X3759809Y1141374D01*
X3763670Y1140612D01*
X3766972Y1138428D01*
X3768344Y1137056D01*
X3770579Y1133652D01*
X3771290Y1129639D01*
X3770426Y1125677D01*
X3767988Y1122375D01*
X3764534Y1120292D01*
X3758793Y1118260D01*
X3753916Y1115212D01*
X3749801Y1111097D01*
X3746703Y1106220D01*
X3744823Y1100734D01*
X3744112Y1092911D01*
X3743299Y1088999D01*
X3741115Y1085748D01*
X3693261Y1037844D01*
X3689959Y1035659D01*
X3686048Y1034846D01*
X3682187Y1035659D01*
X3678885Y1037844D01*
X3676650Y1041146D01*
X3675887Y1045006D01*
X3675887Y1094435D01*
X3675176Y1100734D01*
X3673297Y1106220D01*
X3670198Y1111097D01*
X3666083Y1115212D01*
X3661206Y1118260D01*
X3655720Y1120190D01*
X3649421Y1120902D01*
X3550564Y1120902D01*
X3544214Y1120190D01*
X3538778Y1118260D01*
X3533901Y1115212D01*
X3529787Y1111097D01*
X3528110Y1108456D01*
X3525265Y1105458D01*
X3521405Y1103884D01*
X3517239Y1103985D01*
X3513480Y1105712D01*
X3509822Y1108405D01*
X3501186Y1112774D01*
X3491992Y1115568D01*
X3482441Y1116838D01*
X3472789Y1116380D01*
X3463340Y1114348D01*
X3454400Y1110792D01*
X3446170Y1105712D01*
X3438956Y1099362D01*
X3432860Y1091844D01*
X3428187Y1083411D01*
X3424986Y1074318D01*
X3423361Y1064818D01*
X3423361Y1055166D01*
X3424986Y1045667D01*
X3428187Y1036574D01*
X3432860Y1028141D01*
X3438956Y1020622D01*
X3446170Y1014272D01*
X3454400Y1009192D01*
X3463340Y1005636D01*
X3472789Y1003604D01*
X3482441Y1003147D01*
X3491992Y1004417D01*
X3501186Y1007211D01*
X3509822Y1011580D01*
X3518255Y1017828D01*
X3521354Y1019352D01*
X3524758Y1019810D01*
X3528161Y1019048D01*
X3531108Y1017219D01*
X3533648Y1014933D01*
X3538778Y1011732D01*
X3544214Y1009802D01*
X3550564Y1009091D01*
X3649421Y1009091D01*
X3655720Y1009802D01*
X3657955Y1010564D01*
X3661968Y1011123D01*
X3665880Y1010056D01*
X3669080Y1007567D01*
X3671011Y1004011D01*
X3671366Y999490D01*
X3671366Y940511D01*
X3671011Y935990D01*
X3669080Y932434D01*
X3665880Y929944D01*
X3661968Y928878D01*
X3657955Y929436D01*
X3655720Y930198D01*
X3649421Y930910D01*
X3550564Y930910D01*
X3544214Y930198D01*
X3538778Y928268D01*
X3533901Y925220D01*
X3529787Y921105D01*
X3526688Y916228D01*
X3524808Y910742D01*
X3524097Y904443D01*
X3524097Y845566D01*
X3524808Y839266D01*
X3526688Y833780D01*
X3529787Y828903D01*
X3533901Y824788D01*
X3538778Y821690D01*
X3544214Y819810D01*
X3550564Y819099D01*
X3649421Y819099D01*
X3655720Y819810D01*
X3661206Y821690D01*
X3666083Y824788D01*
X3670198Y828903D01*
X3673297Y833780D01*
X3675176Y839266D01*
X3675887Y845566D01*
X3675887Y894943D01*
X3676650Y898855D01*
X3678885Y902157D01*
X3682187Y904341D01*
X3686048Y905103D01*
X3689959Y904341D01*
X3693261Y902157D01*
X3741115Y854252D01*
X3743350Y850950D01*
X3744823Y839266D01*
X3746703Y833780D01*
X3749801Y828903D01*
X3753916Y824788D01*
X3758793Y821740D01*
X3764279Y819810D01*
X3770579Y819099D01*
X3869436Y819099D01*
X3875735Y819810D01*
X3881221Y821740D01*
X3886098Y824788D01*
X3890213Y828903D01*
X3893312Y833780D01*
X3895191Y839266D01*
X3895902Y845566D01*
X3895902Y904443D01*
X3895191Y910742D01*
X3893312Y916228D01*
X3891381Y920597D01*
X3891381Y924407D01*
X3893312Y928776D01*
X3895191Y934262D01*
X3895902Y940562D01*
X3895902Y948639D01*
X3851351Y948639D01*
X3851351Y941069D01*
X3850589Y937209D01*
X3848404Y933907D01*
X3845102Y931671D01*
X3841191Y930910D01*
X3798824Y930910D01*
X3794912Y931671D01*
X3791610Y933907D01*
X3789426Y937209D01*
X3788664Y941069D01*
X3788664Y948639D01*
X3760165Y948639D01*
X3756253Y949401D01*
X3752951Y951636D01*
X3751579Y953008D01*
X3749395Y956310D01*
X3748582Y960221D01*
X3748582Y979779D01*
X3749395Y983691D01*
X3751579Y986993D01*
X3752951Y988364D01*
X3756253Y990549D01*
X3760165Y991362D01*
X3788664Y991362D01*
X3788664Y998931D01*
X3789426Y1002792D01*
X3791610Y1006094D01*
X3794912Y1008329D01*
X3798824Y1009091D01*
X3841191Y1009091D01*
X3845102Y1008329D01*
X3848404Y1006094D01*
X3850589Y1002792D01*
X3851351Y998931D01*
X3851351Y991362D01*
X3895902Y991362D01*
X3895902Y999439D01*
X3895191Y1005636D01*
X3892600Y1012698D01*
X3891991Y1016558D01*
X3892854Y1020318D01*
X3895039Y1023518D01*
X3898341Y1025652D01*
X3902151Y1026414D01*
X4144772Y1026414D01*
X4148683Y1025601D01*
X4151985Y1023416D01*
X4242358Y933043D01*
X4248556Y927912D01*
X4255211Y924356D01*
X4262475Y922172D01*
X4270502Y921410D01*
X4579518Y921410D01*
X4587494Y922172D01*
X4594758Y924356D01*
X4601413Y927912D01*
X4607661Y933043D01*
X4690719Y1016101D01*
X4694021Y1018336D01*
X4697882Y1019098D01*
X4749393Y1019098D01*
X4755743Y1019810D01*
X4761179Y1021689D01*
X4766106Y1024788D01*
X4770170Y1028903D01*
X4773269Y1033780D01*
X4775200Y1039266D01*
X4775911Y1045565D01*
X4775911Y1097076D01*
X4776673Y1100988D01*
X4778857Y1104290D01*
X4797755Y1123188D01*
X4802886Y1129385D01*
X4806442Y1136091D01*
X4808626Y1143304D01*
X4809439Y1151331D01*
X4809439Y1851406D01*
X4810201Y1855317D01*
X4812385Y1858619D01*
X4815687Y1860804D01*
X4819599Y1861566D01*
X4823460Y1860804D01*
X4826762Y1858619D01*
X4838395Y1846986D01*
X4840630Y1843684D01*
X4841392Y1839772D01*
X4841392Y1630476D01*
X4842154Y1622450D01*
X4844338Y1615236D01*
X4847945Y1608582D01*
X4853025Y1602333D01*
X4892344Y1563065D01*
X4898542Y1557934D01*
X4905248Y1554378D01*
X4912461Y1552194D01*
X4920488Y1551381D01*
X4996789Y1551381D01*
X5000853Y1550568D01*
X5004257Y1548130D01*
X5006695Y1543710D01*
X5009794Y1538782D01*
X5013858Y1534718D01*
X5018786Y1531620D01*
X5024221Y1529689D01*
X5030571Y1528978D01*
X5109413Y1528978D01*
X5115763Y1529689D01*
X5121198Y1531620D01*
X5126126Y1534718D01*
X5130190Y1538782D01*
X5133289Y1543710D01*
X5135321Y1549501D01*
X5137454Y1553057D01*
X5140858Y1555445D01*
X5144922Y1556308D01*
X5245100Y1556308D01*
X5249164Y1555445D01*
X5252516Y1553057D01*
X5254650Y1549501D01*
X5256682Y1543710D01*
X5259781Y1538782D01*
X5263896Y1534718D01*
X5268772Y1531620D01*
X5274259Y1529689D01*
X5280558Y1528978D01*
X5359400Y1528978D01*
X5365750Y1529689D01*
X5371185Y1531620D01*
X5376113Y1534718D01*
X5380177Y1538782D01*
X5383276Y1543710D01*
X5385206Y1549146D01*
X5385917Y1555496D01*
X5385917Y1634337D01*
X5385206Y1640636D01*
X5383276Y1646123D01*
X5380177Y1651000D01*
X5376113Y1655114D01*
X5371185Y1658213D01*
X5365750Y1660093D01*
X5359400Y1660804D01*
X5280558Y1660804D01*
X5274259Y1660093D01*
X5268772Y1658213D01*
X5263896Y1655114D01*
X5259781Y1651000D01*
X5256682Y1646123D01*
X5254701Y1640332D01*
X5252516Y1636776D01*
X5249164Y1634388D01*
X5245100Y1633524D01*
X5144871Y1633524D01*
X5140807Y1634388D01*
X5137454Y1636776D01*
X5135321Y1640332D01*
X5133289Y1646123D01*
X5130190Y1651000D01*
X5126126Y1655114D01*
X5121198Y1658213D01*
X5115763Y1660093D01*
X5109413Y1660804D01*
X5030571Y1660804D01*
X5024221Y1660093D01*
X5018786Y1658213D01*
X5013858Y1655114D01*
X5009794Y1651000D01*
X5006695Y1646123D01*
X5004816Y1640636D01*
X5004460Y1637639D01*
X5003393Y1634083D01*
X5001107Y1631188D01*
X4997958Y1629257D01*
X4994351Y1628597D01*
X4940198Y1628597D01*
X4936286Y1629359D01*
X4932984Y1631594D01*
X4921554Y1643024D01*
X4919370Y1646326D01*
X4918608Y1650187D01*
X4918608Y1859483D01*
X4917795Y1867509D01*
X4915611Y1874774D01*
X4912055Y1881428D01*
X4906924Y1887626D01*
X4859680Y1934870D01*
X4857496Y1938172D01*
X4856734Y1942084D01*
X4856734Y1968906D01*
X4856022Y1975256D01*
X4854092Y1980692D01*
X4851044Y1985619D01*
X4846929Y1989683D01*
X4842052Y1992782D01*
X4840224Y1993392D01*
X4836668Y1995525D01*
X4834280Y1998929D01*
X4833416Y2002993D01*
X4834280Y2007057D01*
X4836668Y2010460D01*
X4840224Y2012594D01*
X4842052Y2013204D01*
X4846929Y2016302D01*
X4851044Y2020366D01*
X4852771Y2023160D01*
X4855006Y2025700D01*
X4858004Y2027326D01*
X4861356Y2027885D01*
X5050688Y2027885D01*
X5058714Y2028698D01*
X5065928Y2030882D01*
X5072583Y2034438D01*
X5078831Y2039569D01*
X5097170Y2057907D01*
X5100472Y2060092D01*
X5104384Y2060905D01*
X5117084Y2060905D01*
X5120944Y2060092D01*
X5124246Y2057907D01*
X5126482Y2054606D01*
X5127244Y2050745D01*
X5126482Y2046833D01*
X5124246Y2043531D01*
X5043068Y1962302D01*
X5037937Y1956104D01*
X5034381Y1949450D01*
X5032197Y1942185D01*
X5031384Y1934159D01*
X5031384Y1839975D01*
X5030520Y1835912D01*
X5028133Y1832559D01*
X5024577Y1830425D01*
X5018786Y1828393D01*
X5013858Y1825294D01*
X5009794Y1821180D01*
X5006695Y1816303D01*
X5004816Y1810816D01*
X5004104Y1804517D01*
X5004104Y1725675D01*
X5004816Y1719325D01*
X5006695Y1713890D01*
X5009794Y1708962D01*
X5013858Y1704898D01*
X5018786Y1701800D01*
X5024221Y1699869D01*
X5030571Y1699158D01*
X5109413Y1699158D01*
X5115763Y1699869D01*
X5121198Y1701800D01*
X5126126Y1704898D01*
X5130190Y1708962D01*
X5133289Y1713890D01*
X5135168Y1719325D01*
X5135880Y1725675D01*
X5135880Y1804517D01*
X5135168Y1810816D01*
X5133289Y1816303D01*
X5130190Y1821180D01*
X5126126Y1825294D01*
X5121198Y1828393D01*
X5115407Y1830374D01*
X5111851Y1832559D01*
X5109464Y1835912D01*
X5108600Y1839975D01*
X5108600Y1914499D01*
X5109362Y1918360D01*
X5111597Y1921662D01*
X5247843Y2057907D01*
X5251145Y2060092D01*
X5255006Y2060905D01*
X5305044Y2060905D01*
X5311394Y2061616D01*
X5316829Y2063496D01*
X5321757Y2066594D01*
X5325821Y2070658D01*
X5328920Y2075586D01*
X5330850Y2081022D01*
X5331561Y2087372D01*
X5331561Y2172614D01*
X5330850Y2178964D01*
X5328920Y2184400D01*
X5325821Y2189327D01*
X5321757Y2193391D01*
X5316829Y2196490D01*
X5311394Y2198370D01*
X5305044Y2199081D01*
X5225542Y2199081D01*
X5219242Y2198370D01*
X5213756Y2196490D01*
X5208879Y2193391D01*
X5204764Y2189327D01*
X5201716Y2184400D01*
X5199583Y2178354D01*
X5197449Y2174798D01*
X5194046Y2172360D01*
X5189982Y2171547D01*
X5185918Y2172360D01*
X5182565Y2174798D01*
X5180380Y2178354D01*
X5178298Y2184400D01*
X5175199Y2189327D01*
X5171084Y2193391D01*
X5166207Y2196490D01*
X5160721Y2198370D01*
X5154422Y2199081D01*
X5082895Y2199081D01*
X5079034Y2199894D01*
X5075732Y2202078D01*
X5073497Y2205380D01*
X5072735Y2209241D01*
X5073497Y2213152D01*
X5075732Y2216454D01*
X5117185Y2257907D01*
X5120487Y2260092D01*
X5124348Y2260904D01*
X5174437Y2260904D01*
X5180736Y2261616D01*
X5186222Y2263495D01*
X5191099Y2266594D01*
X5195214Y2270658D01*
X5198262Y2275586D01*
X5200396Y2281682D01*
X5202529Y2285187D01*
X5205933Y2287625D01*
X5209997Y2288438D01*
X5214061Y2287625D01*
X5217414Y2285187D01*
X5219598Y2281682D01*
X5221681Y2275586D01*
X5224780Y2270658D01*
X5228894Y2266594D01*
X5233771Y2263495D01*
X5239258Y2261616D01*
X5245557Y2260904D01*
X5295595Y2260904D01*
X5299506Y2260092D01*
X5302808Y2257907D01*
X5368391Y2192324D01*
X5370626Y2189022D01*
X5371388Y2185111D01*
X5371388Y1890217D01*
X5370626Y1886305D01*
X5368391Y1883003D01*
X5319369Y1833981D01*
X5316067Y1831746D01*
X5312206Y1830984D01*
X5280558Y1830984D01*
X5274259Y1830273D01*
X5268772Y1828393D01*
X5263896Y1825294D01*
X5259781Y1821180D01*
X5256682Y1816303D01*
X5254802Y1810816D01*
X5254091Y1804517D01*
X5254091Y1725675D01*
X5254802Y1719325D01*
X5256682Y1713890D01*
X5259781Y1708962D01*
X5263896Y1704898D01*
X5268772Y1701800D01*
X5274259Y1699869D01*
X5280558Y1699158D01*
X5359400Y1699158D01*
X5365750Y1699869D01*
X5371185Y1701800D01*
X5376113Y1704898D01*
X5380177Y1708962D01*
X5383276Y1713890D01*
X5385206Y1719325D01*
X5385917Y1725675D01*
X5385917Y1787093D01*
X5386679Y1791004D01*
X5388864Y1794256D01*
X5436920Y1842363D01*
X5442051Y1848561D01*
X5445607Y1855216D01*
X5447792Y1862480D01*
X5448604Y1870506D01*
X5448604Y2204821D01*
X5447792Y2212848D01*
X5445607Y2220061D01*
X5442051Y2226767D01*
X5436920Y2232964D01*
X5354523Y2315362D01*
X5352338Y2318664D01*
X5351526Y2322576D01*
X5351526Y2372614D01*
X5350814Y2378964D01*
X5348935Y2384399D01*
X5345836Y2389327D01*
X5341772Y2393391D01*
X5336844Y2396490D01*
X5331409Y2398369D01*
X5325059Y2399080D01*
X5245557Y2399080D01*
X5239258Y2398369D01*
X5233771Y2396490D01*
X5228894Y2393391D01*
X5224780Y2389327D01*
X5221681Y2384399D01*
X5219598Y2378354D01*
X5217414Y2374798D01*
X5214061Y2372360D01*
X5209997Y2371547D01*
X5205933Y2372360D01*
X5202529Y2374798D01*
X5200396Y2378354D01*
X5198262Y2384399D01*
X5195214Y2389327D01*
X5191099Y2393391D01*
X5186222Y2396490D01*
X5180736Y2398369D01*
X5174437Y2399080D01*
X5094935Y2399080D01*
X5088585Y2398369D01*
X5083149Y2396490D01*
X5078222Y2393391D01*
X5074158Y2389327D01*
X5071059Y2384399D01*
X5069128Y2378964D01*
X5068417Y2372614D01*
X5068417Y2322576D01*
X5067655Y2318664D01*
X5065471Y2315413D01*
X4985156Y2235098D01*
X4981854Y2232914D01*
X4977993Y2232101D01*
X4861356Y2232101D01*
X4858004Y2232710D01*
X4855006Y2234336D01*
X4852771Y2236876D01*
X4851044Y2239619D01*
X4846929Y2243683D01*
X4842052Y2246782D01*
X4840224Y2247392D01*
X4836668Y2249525D01*
X4834280Y2252929D01*
X4833416Y2256993D01*
X4834280Y2261057D01*
X4836668Y2264460D01*
X4840224Y2266594D01*
X4842052Y2267204D01*
X4846929Y2270302D01*
X4851298Y2274671D01*
X4854448Y2276805D01*
X4858156Y2277618D01*
X4861915Y2277059D01*
X4874310Y2269236D01*
X4883251Y2265680D01*
X4892700Y2263648D01*
X4902352Y2263190D01*
X4911902Y2264460D01*
X4921097Y2267254D01*
X4929733Y2271623D01*
X4937506Y2277364D01*
X4944160Y2284323D01*
X4949545Y2292299D01*
X4953558Y2301087D01*
X4955946Y2310434D01*
X4956810Y2320036D01*
X4955946Y2329637D01*
X4953558Y2338984D01*
X4949545Y2347772D01*
X4944160Y2355748D01*
X4937506Y2362708D01*
X4929733Y2368448D01*
X4921097Y2372817D01*
X4911902Y2375611D01*
X4902352Y2376881D01*
X4892700Y2376424D01*
X4883251Y2374392D01*
X4874310Y2370836D01*
X4862423Y2363470D01*
X4858664Y2362860D01*
X4854956Y2363724D01*
X4851806Y2365857D01*
X4846929Y2370683D01*
X4842052Y2373782D01*
X4836566Y2375712D01*
X4830267Y2376424D01*
X4711395Y2376424D01*
X4705045Y2375712D01*
X4699609Y2373782D01*
X4694732Y2370683D01*
X4690618Y2366619D01*
X4687519Y2361692D01*
X4685639Y2356256D01*
X4684928Y2349906D01*
X4684928Y2291080D01*
X4685639Y2284730D01*
X4687519Y2279294D01*
X4690618Y2274366D01*
X4694732Y2270302D01*
X4699609Y2267204D01*
X4701387Y2266594D01*
X4704943Y2264460D01*
X4707331Y2261057D01*
X4708194Y2256993D01*
X4707331Y2252929D01*
X4704943Y2249525D01*
X4701387Y2247392D01*
X4699609Y2246782D01*
X4694732Y2243683D01*
X4690618Y2239619D01*
X4687519Y2234692D01*
X4685639Y2229256D01*
X4684928Y2222906D01*
X4684928Y2164080D01*
X4685639Y2157730D01*
X4687519Y2152294D01*
X4690618Y2147366D01*
X4694732Y2143302D01*
X4699609Y2140204D01*
X4701387Y2139594D01*
X4704943Y2137460D01*
X4707331Y2134057D01*
X4708194Y2129993D01*
X4707331Y2125929D01*
X4704943Y2122525D01*
X4701387Y2120392D01*
X4699609Y2119782D01*
X4694732Y2116683D01*
X4690618Y2112619D01*
X4687519Y2107692D01*
X4685639Y2102256D01*
X4684928Y2095906D01*
X4684928Y2082292D01*
X4684217Y2078583D01*
X4682185Y2075383D01*
X4679188Y2073148D01*
X4675530Y2072182D01*
X4671771Y2072589D01*
X4661966Y2075586D01*
X4652416Y2076805D01*
X4642764Y2076399D01*
X4638192Y2075434D01*
X4633722Y2075484D01*
X4629658Y2077466D01*
X4626914Y2080971D01*
X4625898Y2085339D01*
X4625898Y2294432D01*
X4625187Y2300732D01*
X4623257Y2306218D01*
X4620209Y2311095D01*
X4616094Y2315210D01*
X4611217Y2318258D01*
X4605731Y2320188D01*
X4599432Y2320899D01*
X4360570Y2320899D01*
X4354220Y2320188D01*
X4348784Y2318258D01*
X4343857Y2315210D01*
X4339793Y2311095D01*
X4336694Y2306218D01*
X4334814Y2300732D01*
X4334103Y2294432D01*
X4332884Y2290622D01*
X4330242Y2287574D01*
X4326686Y2285796D01*
X4322673Y2285492D01*
X4312412Y2286812D01*
X4308297Y2287524D01*
X4304792Y2289759D01*
X4278020Y2316530D01*
X4275836Y2319832D01*
X4275074Y2323744D01*
X4275074Y2349906D01*
X4274362Y2356256D01*
X4272432Y2361692D01*
X4269384Y2366619D01*
X4265269Y2370683D01*
X4260392Y2373782D01*
X4254906Y2375712D01*
X4248607Y2376424D01*
X4129735Y2376424D01*
X4123385Y2375712D01*
X4117949Y2373782D01*
X4113072Y2370683D01*
X4108958Y2366619D01*
X4105859Y2361692D01*
X4103979Y2356256D01*
X4103268Y2349906D01*
X4103268Y2291080D01*
X4103979Y2284730D01*
X4105859Y2279294D01*
X4108958Y2274366D01*
X4113072Y2270302D01*
X4117949Y2267204D01*
X4119727Y2266594D01*
X4123283Y2264460D01*
X4125671Y2261057D01*
X4126534Y2256993D01*
X4125671Y2252929D01*
X4123283Y2249525D01*
X4119727Y2247392D01*
X4117949Y2246782D01*
X4113072Y2243683D01*
X4108958Y2239619D01*
X4105859Y2234692D01*
X4103979Y2229256D01*
X4103268Y2222906D01*
X4103268Y2214829D01*
X4152798Y2214829D01*
X4152798Y2254402D01*
X4153560Y2258314D01*
X4155795Y2261616D01*
X4159097Y2263800D01*
X4162958Y2264562D01*
X4215333Y2264562D01*
X4219244Y2263800D01*
X4222546Y2261616D01*
X4224731Y2258314D01*
X4225493Y2254402D01*
X4225493Y2214829D01*
X4248048Y2214829D01*
X4252112Y2214016D01*
X4255516Y2211628D01*
X4257649Y2208072D01*
X4258157Y2206548D01*
X4262882Y2198166D01*
X4272178Y2186686D01*
X4273194Y2182723D01*
X4272534Y2178710D01*
X4270349Y2175256D01*
X4266996Y2172970D01*
X4263034Y2172157D01*
X4225493Y2172157D01*
X4225493Y2132584D01*
X4224731Y2128672D01*
X4222546Y2125370D01*
X4219244Y2123186D01*
X4215333Y2122424D01*
X4162958Y2122424D01*
X4159097Y2123186D01*
X4155795Y2125370D01*
X4153560Y2128672D01*
X4152798Y2132584D01*
X4152798Y2172157D01*
X4103268Y2172157D01*
X4103268Y2164080D01*
X4103979Y2157730D01*
X4105859Y2152294D01*
X4108958Y2147366D01*
X4113072Y2143302D01*
X4117949Y2140204D01*
X4119727Y2139594D01*
X4123283Y2137460D01*
X4125671Y2134057D01*
X4126534Y2129993D01*
X4125671Y2125929D01*
X4123283Y2122525D01*
X4119727Y2120392D01*
X4117949Y2119782D01*
X4113072Y2116683D01*
X4108958Y2112619D01*
X4105859Y2107692D01*
X4103979Y2102256D01*
X4103268Y2095906D01*
X4103268Y2093417D01*
X4102455Y2089556D01*
X4100271Y2086254D01*
X4096969Y2084019D01*
X4093108Y2083257D01*
X4088231Y2083257D01*
X4084167Y2084120D01*
X4080764Y2086508D01*
X4078630Y2090064D01*
X4076496Y2096211D01*
X4073398Y2101088D01*
X4069283Y2105202D01*
X4064406Y2108301D01*
X4058310Y2110384D01*
X4054754Y2112568D01*
X4052366Y2115921D01*
X4051503Y2119985D01*
X4052366Y2124049D01*
X4054754Y2127453D01*
X4058310Y2129586D01*
X4064406Y2131720D01*
X4069283Y2134768D01*
X4073398Y2138883D01*
X4076496Y2143760D01*
X4078376Y2149246D01*
X4079087Y2155545D01*
X4079087Y2168804D01*
X4037939Y2168804D01*
X4037939Y2121052D01*
X4037177Y2117191D01*
X4034942Y2113889D01*
X4031691Y2111654D01*
X4027779Y2110892D01*
X3992219Y2110892D01*
X3988308Y2111654D01*
X3985006Y2113889D01*
X3982821Y2117191D01*
X3982059Y2121052D01*
X3982059Y2168804D01*
X3940860Y2168804D01*
X3940860Y2155545D01*
X3941572Y2149246D01*
X3943502Y2143760D01*
X3946601Y2138883D01*
X3950665Y2134768D01*
X3955592Y2131720D01*
X3961637Y2129586D01*
X3965194Y2127453D01*
X3967632Y2124049D01*
X3968445Y2119985D01*
X3967632Y2115921D01*
X3965194Y2112568D01*
X3961637Y2110384D01*
X3955592Y2108301D01*
X3950665Y2105202D01*
X3946601Y2101088D01*
X3943502Y2096211D01*
X3941572Y2090724D01*
X3940860Y2084425D01*
X3940860Y2004923D01*
X3941572Y1998573D01*
X3943502Y1993138D01*
X3946601Y1988210D01*
X3950665Y1984146D01*
X3955592Y1981047D01*
X3961028Y1979168D01*
X3967378Y1978456D01*
X4052620Y1978456D01*
X4058920Y1979168D01*
X4064406Y1981047D01*
X4069283Y1984146D01*
X4073398Y1988210D01*
X4076496Y1993138D01*
X4078630Y1999234D01*
X4080764Y2002789D01*
X4084116Y2005228D01*
X4088180Y2006041D01*
X4104894Y2006041D01*
X4108754Y2005279D01*
X4112056Y2003094D01*
X4114241Y1999792D01*
X4115054Y1995881D01*
X4114241Y1992020D01*
X4112056Y1988718D01*
X4108958Y1985619D01*
X4105859Y1980692D01*
X4103979Y1975256D01*
X4103268Y1968906D01*
X4103268Y1960829D01*
X4152798Y1960829D01*
X4152798Y1995881D01*
X4153560Y1999792D01*
X4155795Y2003094D01*
X4159097Y2005279D01*
X4162958Y2006041D01*
X4166819Y2006041D01*
X4174845Y2006854D01*
X4185056Y2010308D01*
X4187494Y2010562D01*
X4215333Y2010562D01*
X4219244Y2009800D01*
X4222546Y2007616D01*
X4224731Y2004314D01*
X4225493Y2000402D01*
X4225493Y1960829D01*
X4275074Y1960829D01*
X4275074Y1968906D01*
X4274362Y1975256D01*
X4272432Y1980692D01*
X4269384Y1985619D01*
X4265269Y1989683D01*
X4260392Y1992782D01*
X4258564Y1993392D01*
X4255008Y1995525D01*
X4252620Y1998929D01*
X4251756Y2002993D01*
X4252620Y2007057D01*
X4255008Y2010460D01*
X4258564Y2012594D01*
X4260392Y2013204D01*
X4265269Y2016302D01*
X4269384Y2020366D01*
X4272432Y2025294D01*
X4274362Y2030730D01*
X4275074Y2037080D01*
X4275074Y2095906D01*
X4274362Y2102256D01*
X4272432Y2107692D01*
X4269384Y2112619D01*
X4265269Y2116683D01*
X4260392Y2119782D01*
X4258564Y2120392D01*
X4255008Y2122525D01*
X4252620Y2125929D01*
X4251756Y2129993D01*
X4252620Y2134057D01*
X4255008Y2137460D01*
X4258564Y2139594D01*
X4260392Y2140204D01*
X4265269Y2143302D01*
X4269384Y2147366D01*
X4272432Y2152294D01*
X4274362Y2157730D01*
X4275074Y2164080D01*
X4275074Y2167940D01*
X4275836Y2171801D01*
X4278020Y2175103D01*
X4281271Y2177288D01*
X4285132Y2178100D01*
X4288993Y2177338D01*
X4293362Y2175611D01*
X4302760Y2173579D01*
X4312412Y2173173D01*
X4322622Y2174494D01*
X4326890Y2174138D01*
X4330649Y2172004D01*
X4333189Y2168601D01*
X4334103Y2164384D01*
X4334103Y1965553D01*
X4334814Y1959254D01*
X4336694Y1953768D01*
X4339793Y1948891D01*
X4343857Y1944776D01*
X4348784Y1941728D01*
X4354220Y1939798D01*
X4360570Y1939086D01*
X4599432Y1939086D01*
X4605731Y1939798D01*
X4611217Y1941728D01*
X4616094Y1944776D01*
X4620209Y1948891D01*
X4623257Y1953768D01*
X4624882Y1958339D01*
X4626660Y1961489D01*
X4629505Y1963826D01*
X4632960Y1965045D01*
X4636617Y1964893D01*
X4642764Y1963572D01*
X4648250Y1963369D01*
X4651908Y1962505D01*
X4655007Y1960372D01*
X4681931Y1933448D01*
X4684115Y1930146D01*
X4684928Y1926285D01*
X4684928Y1910080D01*
X4685639Y1903730D01*
X4687519Y1898294D01*
X4690618Y1893366D01*
X4694732Y1889302D01*
X4699609Y1886204D01*
X4705045Y1884324D01*
X4711395Y1883562D01*
X4722063Y1883562D01*
X4725924Y1882800D01*
X4729226Y1880616D01*
X4731461Y1877314D01*
X4732223Y1873402D01*
X4732223Y1171041D01*
X4731461Y1167180D01*
X4729226Y1163878D01*
X4725924Y1161694D01*
X4722063Y1160881D01*
X4670552Y1160881D01*
X4664252Y1160170D01*
X4658766Y1158290D01*
X4653889Y1155192D01*
X4649774Y1151128D01*
X4648606Y1149248D01*
X4645761Y1146302D01*
X4642053Y1144676D01*
X4637938Y1144676D01*
X4634230Y1146302D01*
X4631385Y1149248D01*
X4630216Y1151128D01*
X4626102Y1155192D01*
X4621225Y1158290D01*
X4615738Y1160170D01*
X4609439Y1160881D01*
X4596333Y1160881D01*
X4596333Y1118870D01*
X4633925Y1118870D01*
X4637786Y1118057D01*
X4641088Y1115872D01*
X4643323Y1112570D01*
X4644085Y1108710D01*
X4644085Y1082903D01*
X4643323Y1078992D01*
X4641088Y1075690D01*
X4629505Y1064107D01*
X4626203Y1061923D01*
X4622342Y1061161D01*
X4596333Y1061161D01*
X4596333Y1035151D01*
X4595571Y1031290D01*
X4593386Y1027988D01*
X4566970Y1001572D01*
X4563668Y999388D01*
X4559808Y998626D01*
X4290212Y998626D01*
X4286300Y999388D01*
X4282998Y1001572D01*
X4192625Y1091946D01*
X4186428Y1097076D01*
X4179722Y1100632D01*
X4172508Y1102817D01*
X4164482Y1103630D01*
X3900525Y1103630D01*
X3897172Y1104188D01*
X3894175Y1105814D01*
X3891940Y1108354D01*
X3890213Y1111097D01*
X3886098Y1115212D01*
X3881221Y1118260D01*
X3875836Y1120140D01*
X3867759Y1120952D01*
X3864203Y1121968D01*
X3861257Y1124254D01*
X3859276Y1127404D01*
X3858615Y1131062D01*
X3858615Y1139494D01*
X3857802Y1147521D01*
X3855618Y1154734D01*
X3852062Y1161389D01*
X3846931Y1167638D01*
X3807663Y1206957D01*
X3801414Y1212037D01*
X3794760Y1215644D01*
X3787495Y1217828D01*
X3779469Y1218590D01*
X3210509Y1218590D01*
X3202482Y1217828D01*
X3195218Y1215644D01*
X3188563Y1212037D01*
X3182366Y1206957D01*
X3069285Y1093876D01*
X3065983Y1091692D01*
X3062122Y1090930D01*
X3010560Y1090930D01*
X3004261Y1090218D01*
X2998774Y1088288D01*
X2993898Y1085189D01*
X2989783Y1081125D01*
X2986735Y1076198D01*
X2984804Y1070762D01*
X2984449Y1067612D01*
X2983382Y1064107D01*
X2981147Y1061161D01*
X2977997Y1059281D01*
X2974340Y1058570D01*
X2880461Y1058570D01*
X2872486Y1057808D01*
X2865221Y1055624D01*
X2858566Y1052068D01*
X2852318Y1046937D01*
X2440940Y635558D01*
X2437638Y633374D01*
X2433777Y632561D01*
X2429865Y633374D01*
X2426614Y635558D01*
X2424379Y638860D01*
X2423617Y642721D01*
X2423617Y1493570D01*
X2424582Y1497888D01*
X2427274Y1501394D01*
X2431237Y1503426D01*
X2435656Y1503578D01*
X2439720Y1501851D01*
X2448915Y1490624D01*
X2456180Y1484274D01*
X2464358Y1479194D01*
X2473350Y1475638D01*
X2482748Y1473606D01*
X2492400Y1473149D01*
X2501950Y1474419D01*
X2511196Y1477213D01*
X2519781Y1481582D01*
X2527554Y1487322D01*
X2534259Y1494282D01*
X2539644Y1502257D01*
X2543606Y1511046D01*
X2546045Y1520393D01*
X2546756Y1528775D01*
X2547670Y1532178D01*
X2549702Y1535074D01*
X3322472Y2307894D01*
X3325774Y2310079D01*
X3329686Y2310841D01*
X3416960Y2310841D01*
X3420719Y2310180D01*
X3423920Y2308148D01*
X3426155Y2305100D01*
X3427120Y2301443D01*
X3426663Y2297684D01*
X3424885Y2294331D01*
X3422853Y2291842D01*
X3418179Y2283409D01*
X3414979Y2274316D01*
X3413353Y2264816D01*
X3413353Y2255164D01*
X3414979Y2245664D01*
X3418179Y2236571D01*
X3422853Y2228138D01*
X3428949Y2220620D01*
X3436162Y2214270D01*
X3444392Y2209190D01*
X3453333Y2205634D01*
X3462782Y2203602D01*
X3468268Y2203348D01*
X3471926Y2202484D01*
X3475024Y2200402D01*
X3479850Y2195525D01*
X3486099Y2190394D01*
X3492754Y2186838D01*
X3499967Y2184654D01*
X3507994Y2183841D01*
X3549040Y2183841D01*
X3552698Y2183180D01*
X3555847Y2181301D01*
X3558082Y2178354D01*
X3559149Y2174849D01*
X3559810Y2169261D01*
X3562248Y2162454D01*
X3562858Y2159000D01*
X3562248Y2155494D01*
X3559810Y2148687D01*
X3559098Y2142388D01*
X3559098Y2048560D01*
X3559810Y2042261D01*
X3562248Y2035454D01*
X3562858Y2032000D01*
X3562248Y2028494D01*
X3559810Y2021687D01*
X3559098Y2015388D01*
X3559098Y1998573D01*
X3631133Y1998573D01*
X3631133Y2011934D01*
X3631895Y2015794D01*
X3634130Y2019096D01*
X3637432Y2021281D01*
X3641293Y2022093D01*
X3738676Y2022093D01*
X3742588Y2021281D01*
X3745839Y2019096D01*
X3748074Y2015794D01*
X3748836Y2011934D01*
X3748836Y1998573D01*
X3820871Y1998573D01*
X3820871Y2015388D01*
X3820210Y2021687D01*
X3817721Y2028494D01*
X3817112Y2032000D01*
X3817721Y2035454D01*
X3820210Y2042261D01*
X3820871Y2048560D01*
X3820871Y2142388D01*
X3820210Y2148687D01*
X3817721Y2155494D01*
X3817112Y2159000D01*
X3817721Y2162454D01*
X3820210Y2169261D01*
X3820871Y2175560D01*
X3820871Y2269388D01*
X3820210Y2275687D01*
X3817721Y2282494D01*
X3817112Y2286000D01*
X3817721Y2289454D01*
X3820210Y2296261D01*
X3820871Y2302560D01*
X3820871Y2396388D01*
X3820210Y2402687D01*
X3817721Y2409494D01*
X3817112Y2413000D01*
X3817721Y2416454D01*
X3820210Y2423261D01*
X3820871Y2429560D01*
X3820871Y2523388D01*
X3820210Y2529687D01*
X3817721Y2536494D01*
X3817112Y2540000D01*
X3817721Y2543454D01*
X3820210Y2550261D01*
X3820871Y2556560D01*
X3820871Y2650388D01*
X3820210Y2656687D01*
X3817721Y2663494D01*
X3817112Y2667000D01*
X3817721Y2670454D01*
X3820210Y2677261D01*
X3820871Y2683560D01*
X3820871Y2777388D01*
X3820210Y2783687D01*
X3817721Y2790494D01*
X3817112Y2794000D01*
X3817721Y2797454D01*
X3820210Y2804261D01*
X3820871Y2810560D01*
X3820871Y2904388D01*
X3820210Y2910687D01*
X3817721Y2917494D01*
X3817112Y2921000D01*
X3817721Y2924454D01*
X3820210Y2931261D01*
X3820871Y2937560D01*
X3820871Y3031388D01*
X3820210Y3037687D01*
X3817721Y3044494D01*
X3817112Y3048000D01*
X3817721Y3051454D01*
X3820210Y3058261D01*
X3820871Y3064560D01*
X3820871Y3158388D01*
X3820210Y3164687D01*
X3817721Y3171494D01*
X3817112Y3175000D01*
X3817721Y3178454D01*
X3820210Y3185261D01*
X3820820Y3190849D01*
X3821887Y3194354D01*
X3824122Y3197301D01*
X3827272Y3199180D01*
X3830929Y3199841D01*
X4221327Y3199841D01*
X4225188Y3199079D01*
X4228490Y3196894D01*
X4590338Y2835046D01*
X4592574Y2831744D01*
X4593336Y2827832D01*
X4593336Y2825191D01*
X4594961Y2815640D01*
X4598162Y2806547D01*
X4602886Y2798165D01*
X4608931Y2790647D01*
X4616196Y2784246D01*
X4624374Y2779217D01*
X4633366Y2775610D01*
X4642764Y2773578D01*
X4652416Y2773172D01*
X4661966Y2774391D01*
X4671212Y2777236D01*
X4679797Y2781554D01*
X4687570Y2787294D01*
X4694275Y2794254D01*
X4699660Y2802280D01*
X4703622Y2811068D01*
X4706061Y2820365D01*
X4706874Y2829966D01*
X4706061Y2839618D01*
X4703622Y2848914D01*
X4699660Y2857703D01*
X4694275Y2865729D01*
X4687570Y2872689D01*
X4679797Y2878429D01*
X4671212Y2882747D01*
X4661966Y2885592D01*
X4648301Y2887472D01*
X4644796Y2889758D01*
X4269181Y3265424D01*
X4262932Y3270554D01*
X4256278Y3274110D01*
X4249013Y3276295D01*
X4240987Y3277057D01*
X3830929Y3277057D01*
X3827272Y3277768D01*
X3824122Y3279648D01*
X3821887Y3282594D01*
X3820820Y3286099D01*
X3820210Y3291687D01*
X3817721Y3298494D01*
X3817112Y3302000D01*
X3817721Y3305454D01*
X3820210Y3312261D01*
X3820871Y3318560D01*
X3820871Y3412388D01*
X3820210Y3418687D01*
X3817721Y3425494D01*
X3817112Y3429000D01*
X3817721Y3432454D01*
X3820210Y3439261D01*
X3820871Y3445560D01*
X3820871Y3539388D01*
X3820210Y3545687D01*
X3817721Y3552494D01*
X3817112Y3556000D01*
X3817721Y3559454D01*
X3820210Y3566261D01*
X3820871Y3572560D01*
X3820871Y3666388D01*
X3820160Y3672738D01*
X3818280Y3678174D01*
X3815181Y3683101D01*
X3811117Y3687165D01*
X3806190Y3690264D01*
X3800754Y3692194D01*
X3794404Y3692906D01*
X3792016Y3692906D01*
X3788105Y3693668D01*
X3784854Y3695852D01*
X3782618Y3699154D01*
X3781856Y3703065D01*
X3782618Y3706926D01*
X3784854Y3710228D01*
X3896918Y3822344D01*
X3902049Y3828592D01*
X3905605Y3835247D01*
X3907790Y3842461D01*
X3908602Y3850487D01*
X3908602Y4599482D01*
X3907790Y4607509D01*
X3905605Y4614722D01*
X3902049Y4621428D01*
X3896918Y4627626D01*
X3685844Y4838750D01*
X3683711Y4841849D01*
X3682898Y4845558D01*
X3683457Y4849266D01*
X3685184Y4854244D01*
X3685895Y4860594D01*
X3685895Y4969408D01*
X3685184Y4975758D01*
X3683254Y4981194D01*
X3680206Y4986121D01*
X3676091Y4990185D01*
X3671214Y4993284D01*
X3665728Y4995214D01*
X3659428Y4995926D01*
X3480562Y4995926D01*
X3474262Y4995214D01*
X3468776Y4993284D01*
X3463899Y4990185D01*
X3459784Y4986121D01*
X3456686Y4981194D01*
X3454806Y4975758D01*
X3454095Y4969408D01*
X3454095Y4860594D01*
X3454806Y4854244D01*
X3456686Y4848809D01*
X3459784Y4843881D01*
X3463899Y4839817D01*
X3468776Y4836718D01*
X3474262Y4834788D01*
X3480562Y4834077D01*
X3577082Y4834077D01*
X3580993Y4833315D01*
X3584244Y4831130D01*
X3828389Y4586986D01*
X3830624Y4583684D01*
X3831386Y4579772D01*
X3831386Y3870198D01*
X3830624Y3866286D01*
X3828389Y3862984D01*
X3662172Y3696614D01*
X3658666Y3693871D01*
X3654348Y3692906D01*
X3585565Y3692906D01*
X3579215Y3692194D01*
X3573779Y3690264D01*
X3568852Y3687165D01*
X3564788Y3683101D01*
X3561689Y3678174D01*
X3559810Y3672738D01*
X3559098Y3666388D01*
X3559098Y3572560D01*
X3559810Y3566261D01*
X3562248Y3559454D01*
X3562858Y3556000D01*
X3562248Y3552494D01*
X3559810Y3545687D01*
X3559098Y3539388D01*
X3559098Y3445560D01*
X3559810Y3439261D01*
X3562248Y3432454D01*
X3562858Y3429000D01*
X3562248Y3425494D01*
X3559810Y3418687D01*
X3559149Y3413150D01*
X3558082Y3409594D01*
X3555847Y3406698D01*
X3552698Y3404768D01*
X3549040Y3404108D01*
X2424836Y3404108D01*
X2420924Y3404870D01*
X2417622Y3407105D01*
X2191359Y3633317D01*
X2189175Y3636619D01*
X2188413Y3640531D01*
X2188413Y3712616D01*
X2145080Y3712616D01*
X2145080Y3704132D01*
X2144318Y3700272D01*
X2142134Y3696970D01*
X2138832Y3694785D01*
X2134920Y3693972D01*
X2131060Y3694785D01*
X2127758Y3696970D01*
X1917649Y3907028D01*
X1911451Y3912158D01*
X1904746Y3915714D01*
X1897532Y3917899D01*
X1889506Y3918712D01*
X1885797Y3918712D01*
X1881835Y3919524D01*
X1869795Y3928516D01*
X1861159Y3932885D01*
X1851964Y3935679D01*
X1842414Y3936949D01*
X1832762Y3936492D01*
X1823313Y3934460D01*
X1814372Y3930904D01*
X1806143Y3925824D01*
X1798929Y3919474D01*
X1792833Y3911955D01*
X1788160Y3903522D01*
X1784959Y3894429D01*
X1783334Y3884929D01*
X1783334Y3875278D01*
X1784959Y3865778D01*
X1788160Y3856685D01*
X1792833Y3848252D01*
X1798929Y3840734D01*
X1806143Y3834384D01*
X1814372Y3829304D01*
X1823313Y3825748D01*
X1832762Y3823715D01*
X1842414Y3823258D01*
X1851964Y3824528D01*
X1861159Y3827322D01*
X1874062Y3834028D01*
X1877618Y3834384D01*
X1881124Y3833520D01*
X1884070Y3831437D01*
X2005685Y3709822D01*
X2007971Y3706368D01*
X2008682Y3702253D01*
X2007666Y3698240D01*
X2005126Y3694937D01*
X2001520Y3692956D01*
X1997354Y3692550D01*
X1994458Y3692855D01*
X1785569Y3692855D01*
X1779270Y3692144D01*
X1773783Y3690264D01*
X1768906Y3687165D01*
X1764792Y3683101D01*
X1761743Y3678174D01*
X1759813Y3672738D01*
X1759102Y3666388D01*
X1759102Y3572560D01*
X1759813Y3566261D01*
X1762302Y3559403D01*
X1762912Y3555949D01*
X1762302Y3552494D01*
X1759813Y3545687D01*
X1759102Y3539388D01*
X1759102Y3445560D01*
X1759813Y3439261D01*
X1762302Y3432403D01*
X1762912Y3428949D01*
X1762302Y3425494D01*
X1759813Y3418687D01*
X1759102Y3412388D01*
X1759102Y3318560D01*
X1759813Y3312261D01*
X1762302Y3305403D01*
X1762912Y3301949D01*
X1762302Y3298494D01*
X1759813Y3291687D01*
X1759102Y3285388D01*
X1759102Y3191560D01*
X1759813Y3185261D01*
X1762302Y3178403D01*
X1762912Y3174949D01*
X1762302Y3171494D01*
X1759813Y3164687D01*
X1759102Y3158388D01*
X1759102Y3064560D01*
X1759813Y3058261D01*
X1762302Y3051403D01*
X1762912Y3047949D01*
X1762302Y3044494D01*
X1759813Y3037687D01*
X1759102Y3031388D01*
X1759102Y2937560D01*
X1759813Y2931261D01*
X1762302Y2924403D01*
X1762912Y2920949D01*
X1762302Y2917494D01*
X1759813Y2910687D01*
X1759102Y2904388D01*
X1759102Y2810560D01*
X1759813Y2804261D01*
X1762302Y2797403D01*
X1762912Y2793949D01*
X1762302Y2790494D01*
X1759813Y2783687D01*
X1759102Y2777388D01*
X1759102Y2683560D01*
X1759813Y2677261D01*
X1762302Y2670403D01*
X1762912Y2666949D01*
X1762302Y2663494D01*
X1759813Y2656687D01*
X1759102Y2650388D01*
X1759102Y2556560D01*
X1759813Y2550261D01*
X1762302Y2543403D01*
X1762912Y2539949D01*
X1762302Y2536494D01*
X1759813Y2529687D01*
X1759102Y2523388D01*
X1759102Y2429560D01*
X1759813Y2423261D01*
X1762302Y2416403D01*
X1762912Y2412949D01*
X1762302Y2409494D01*
X1759813Y2402687D01*
X1759102Y2396388D01*
X1759102Y2302560D01*
X1759813Y2296261D01*
X1762302Y2289403D01*
X1762912Y2285949D01*
X1762302Y2282494D01*
X1759813Y2275687D01*
X1759204Y2270099D01*
X1758137Y2266594D01*
X1755851Y2263648D01*
X1752701Y2261768D01*
X1747723Y2261057D01*
X1743811Y2261870D01*
X1740509Y2264054D01*
X1671574Y2332990D01*
X1669389Y2336292D01*
X1668627Y2340203D01*
X1668627Y4319778D01*
X1669389Y4323689D01*
X1671574Y4326991D01*
X2076957Y4732324D01*
X2082038Y4738573D01*
X2085644Y4745228D01*
X2087829Y4752492D01*
X2088591Y4760468D01*
X2088591Y4823917D01*
X2089353Y4827828D01*
X2091588Y4831130D01*
X2094890Y4833315D01*
X2098751Y4834077D01*
X2139442Y4834077D01*
X2145741Y4834788D01*
X2151227Y4836718D01*
X2156104Y4839817D01*
X2160219Y4843881D01*
X2163267Y4848809D01*
X2165197Y4854244D01*
X2165908Y4860594D01*
X2165908Y4969408D01*
X2165197Y4975758D01*
X2163267Y4981194D01*
X2160219Y4986121D01*
X2156104Y4990185D01*
X2151227Y4993284D01*
X2145741Y4995214D01*
X2139442Y4995926D01*
X1960575Y4995926D01*
X1954225Y4995214D01*
X1948789Y4993284D01*
X1943862Y4990185D01*
X1939798Y4986121D01*
X1936699Y4981194D01*
X1934819Y4975758D01*
X1934108Y4969408D01*
X1934108Y4860594D01*
X1934819Y4854244D01*
X1936699Y4848809D01*
X1939798Y4843881D01*
X1943862Y4839817D01*
X1948789Y4836718D01*
X1954225Y4834788D01*
X1960575Y4834077D01*
X2001215Y4834077D01*
X2005126Y4833315D01*
X2008428Y4831130D01*
X2010613Y4827828D01*
X2011375Y4823917D01*
X2011375Y4780178D01*
X2010613Y4776317D01*
X2008428Y4773015D01*
X1603044Y4367631D01*
X1597914Y4361434D01*
X1594358Y4354728D01*
X1592173Y4347514D01*
X1591411Y4339488D01*
X1591411Y2320493D01*
X1592173Y2312466D01*
X1594358Y2305253D01*
X1597914Y2298598D01*
X1603044Y2292350D01*
X1699869Y2195525D01*
X1706118Y2190394D01*
X1712772Y2186838D01*
X1719986Y2184654D01*
X1728012Y2183841D01*
X1749094Y2183841D01*
X1752701Y2183180D01*
X1755851Y2181301D01*
X1758137Y2178354D01*
X1759204Y2174849D01*
X1759813Y2169261D01*
X1762302Y2162403D01*
X1762912Y2158949D01*
X1762302Y2155494D01*
X1759813Y2148687D01*
X1759204Y2143099D01*
X1758137Y2139594D01*
X1755851Y2136648D01*
X1752701Y2134768D01*
X1749094Y2134057D01*
X1010666Y2134057D01*
X1002690Y2133295D01*
X995426Y2131110D01*
X988771Y2127554D01*
X982522Y2122424D01*
X809701Y1949602D01*
X806602Y1947468D01*
X802944Y1946656D01*
X797509Y1946402D01*
X788060Y1944370D01*
X779119Y1940763D01*
X770890Y1935734D01*
X765708Y1931162D01*
X762558Y1929282D01*
X759002Y1928622D01*
X700176Y1928622D01*
X696315Y1929384D01*
X693013Y1931568D01*
X608888Y2015693D01*
X606653Y2018995D01*
X605891Y2022906D01*
X605891Y2074418D01*
X605180Y2080768D01*
X603250Y2086203D01*
X600202Y2091131D01*
X596087Y2095195D01*
X591210Y2098294D01*
X585724Y2100173D01*
X579424Y2100884D01*
X500583Y2100884D01*
X494233Y2100173D01*
X488797Y2098294D01*
X483870Y2095195D01*
X479806Y2091131D01*
X478586Y2089251D01*
X475792Y2086305D01*
X472033Y2084679D01*
X467969Y2084679D01*
X464210Y2086305D01*
X461416Y2089251D01*
X460197Y2091131D01*
X456133Y2095195D01*
X451205Y2098294D01*
X445770Y2100173D01*
X439420Y2100884D01*
X426364Y2100884D01*
X426364Y2058822D01*
X463905Y2058822D01*
X467817Y2058060D01*
X471119Y2055875D01*
X473303Y2052574D01*
X474065Y2048662D01*
X474065Y2011324D01*
X473303Y2007412D01*
X471119Y2004110D01*
X467817Y2001926D01*
X463905Y2001164D01*
X426364Y2001164D01*
X426364Y1959102D01*
X439420Y1959102D01*
X445770Y1959813D01*
X451205Y1961692D01*
X456133Y1964791D01*
X460197Y1968906D01*
X461416Y1970786D01*
X464210Y1973732D01*
X467969Y1975307D01*
X472033Y1975307D01*
X475792Y1973732D01*
X478586Y1970786D01*
X479806Y1968906D01*
X483870Y1964791D01*
X488797Y1961692D01*
X494233Y1959813D01*
X500583Y1959102D01*
X552094Y1959102D01*
X555955Y1958289D01*
X559257Y1956104D01*
X652322Y1863039D01*
X658571Y1857959D01*
X665226Y1854352D01*
X672490Y1852168D01*
X680466Y1851406D01*
X758952Y1851406D01*
X762558Y1850745D01*
X765708Y1848866D01*
X770890Y1844243D01*
X779119Y1839214D01*
X788060Y1835607D01*
X797509Y1833575D01*
X807161Y1833168D01*
X816711Y1834388D01*
X825906Y1837232D01*
X834542Y1841550D01*
X842314Y1847291D01*
X848969Y1854250D01*
X852627Y1858924D01*
X857250Y1862734D01*
X862076Y1868576D01*
X865632Y1875231D01*
X867816Y1882495D01*
X868578Y1890014D01*
X868222Y1893620D01*
X868730Y1898040D01*
X871118Y1901799D01*
X1023213Y2053894D01*
X1026515Y2056079D01*
X1030376Y2056841D01*
X1749094Y2056841D01*
X1752701Y2056180D01*
X1755851Y2054301D01*
X1758137Y2051354D01*
X1759204Y2047849D01*
X1759813Y2042261D01*
X1762302Y2035403D01*
X1762912Y2031949D01*
X1762302Y2028494D01*
X1759813Y2021687D01*
X1759102Y2015388D01*
X1759102Y1998573D01*
X1831187Y1998573D01*
X1831187Y2011883D01*
X1831949Y2015794D01*
X1834134Y2019096D01*
X1837436Y2021281D01*
X1841347Y2022043D01*
X1938731Y2022043D01*
X1942592Y2021281D01*
X1945893Y2019096D01*
X1948078Y2015794D01*
X1948891Y2011883D01*
X1948891Y1998573D01*
X2020925Y1998573D01*
X2020925Y2015388D01*
X2020214Y2021687D01*
X2017725Y2028494D01*
X2017115Y2031949D01*
X2017725Y2035403D01*
X2020214Y2042261D01*
X2020925Y2048560D01*
X2020925Y2142388D01*
X2020214Y2148687D01*
X2017725Y2155494D01*
X2017115Y2158949D01*
X2017725Y2162403D01*
X2020214Y2169261D01*
X2020925Y2175560D01*
X2020925Y2269388D01*
X2020214Y2275687D01*
X2017725Y2282494D01*
X2017115Y2285949D01*
X2017725Y2289403D01*
X2020214Y2296261D01*
X2020925Y2302560D01*
X2020925Y2396388D01*
X2020214Y2402687D01*
X2017725Y2409494D01*
X2017115Y2412949D01*
X2017725Y2416403D01*
X2020214Y2423261D01*
X2020925Y2429560D01*
X2020925Y2523388D01*
X2020214Y2529687D01*
X2017725Y2536494D01*
X2017115Y2539949D01*
X2017725Y2543403D01*
X2020214Y2550261D01*
X2020925Y2556560D01*
X2020925Y2650388D01*
X2020214Y2656687D01*
X2017725Y2663494D01*
X2017115Y2666949D01*
X2017725Y2670403D01*
X2020214Y2677261D01*
X2020925Y2683560D01*
X2020925Y2777388D01*
X2020214Y2783687D01*
X2017725Y2790494D01*
X2017115Y2793949D01*
X2017725Y2797403D01*
X2020214Y2804261D01*
X2020925Y2810560D01*
X2020925Y2904388D01*
X2020214Y2910687D01*
X2017725Y2917494D01*
X2017115Y2920949D01*
X2017725Y2924403D01*
X2020214Y2931261D01*
X2020925Y2937560D01*
X2020925Y3031388D01*
X2020214Y3037687D01*
X2017725Y3044494D01*
X2017115Y3047949D01*
X2017725Y3051403D01*
X2020214Y3058261D01*
X2020925Y3064560D01*
X2020925Y3158388D01*
X2020214Y3164687D01*
X2017725Y3171494D01*
X2017115Y3174949D01*
X2017725Y3178403D01*
X2020214Y3185261D01*
X2020925Y3191560D01*
X2020925Y3285388D01*
X2020214Y3291687D01*
X2017725Y3298494D01*
X2017115Y3301949D01*
X2017725Y3305403D01*
X2020214Y3312261D01*
X2020925Y3318560D01*
X2020925Y3412388D01*
X2020214Y3418687D01*
X2017725Y3425494D01*
X2017115Y3428949D01*
X2017725Y3432403D01*
X2020214Y3439261D01*
X2020925Y3445560D01*
X2020925Y3539388D01*
X2020214Y3545687D01*
X2017725Y3552494D01*
X2017115Y3555949D01*
X2017725Y3559403D01*
X2020214Y3566261D01*
X2020925Y3572560D01*
X2020925Y3666388D01*
X2020570Y3669334D01*
X2020976Y3673449D01*
X2023008Y3677107D01*
X2026259Y3679596D01*
X2030323Y3680612D01*
X2034387Y3679901D01*
X2037892Y3677665D01*
X2376982Y3338576D01*
X2383180Y3333445D01*
X2389886Y3329889D01*
X2397099Y3327704D01*
X2405126Y3326892D01*
X3549040Y3326892D01*
X3552698Y3326231D01*
X3555847Y3324301D01*
X3558082Y3321405D01*
X3559149Y3317849D01*
X3559810Y3312261D01*
X3562248Y3305454D01*
X3562858Y3302000D01*
X3562248Y3298494D01*
X3559810Y3291687D01*
X3559098Y3285388D01*
X3559098Y3191560D01*
X3559810Y3185261D01*
X3562248Y3178454D01*
X3562858Y3175000D01*
X3562248Y3171494D01*
X3559810Y3164687D01*
X3559098Y3158388D01*
X3559098Y3064560D01*
X3559810Y3058261D01*
X3562248Y3051454D01*
X3562858Y3048000D01*
X3562248Y3044494D01*
X3559810Y3037687D01*
X3559098Y3031388D01*
X3559098Y2937560D01*
X3559810Y2931261D01*
X3562248Y2924454D01*
X3562858Y2921000D01*
X3562248Y2917494D01*
X3559810Y2910687D01*
X3559098Y2904388D01*
X3559098Y2810560D01*
X3559810Y2804261D01*
X3562248Y2797454D01*
X3562858Y2794000D01*
X3562248Y2790494D01*
X3559810Y2783687D01*
X3559098Y2777388D01*
X3559098Y2740253D01*
X3558235Y2736240D01*
X3555898Y2732836D01*
X3552393Y2730703D01*
X3548329Y2730093D01*
X3544366Y2731160D01*
X3541166Y2732786D01*
X3531971Y2735580D01*
X3522421Y2736850D01*
X3512769Y2736392D01*
X3503320Y2734360D01*
X3494379Y2730804D01*
X3486150Y2725724D01*
X3478936Y2719374D01*
X3472840Y2711856D01*
X3468166Y2703423D01*
X3464966Y2694330D01*
X3463340Y2684830D01*
X3463340Y2675178D01*
X3464966Y2665679D01*
X3468166Y2656586D01*
X3472840Y2648153D01*
X3478936Y2640634D01*
X3486150Y2634284D01*
X3494379Y2629204D01*
X3503320Y2625648D01*
X3512769Y2623616D01*
X3518255Y2623362D01*
X3521913Y2622499D01*
X3525012Y2620416D01*
X3556101Y2589276D01*
X3558286Y2585974D01*
X3559098Y2582113D01*
X3559098Y2556560D01*
X3559810Y2550261D01*
X3562248Y2543454D01*
X3562858Y2540000D01*
X3562248Y2536494D01*
X3559810Y2529687D01*
X3559149Y2524099D01*
X3558082Y2520594D01*
X3555847Y2517648D01*
X3552698Y2515768D01*
X3549040Y2515057D01*
X3196996Y2515057D01*
X3188970Y2514295D01*
X3181705Y2512110D01*
X3175050Y2508554D01*
X3168802Y2503424D01*
X2358034Y1692656D01*
X2352954Y1686407D01*
X2349398Y1679752D01*
X2347163Y1672539D01*
X2346401Y1664512D01*
X2346401Y1444904D01*
X2345690Y1441196D01*
X2343708Y1438046D01*
X2340660Y1435760D01*
X2337003Y1434795D01*
X2322423Y1436827D01*
X2312771Y1436420D01*
X2303373Y1434388D01*
X2294382Y1430782D01*
X2286203Y1425752D01*
X2278938Y1419352D01*
X2272893Y1411833D01*
X2268169Y1403451D01*
X2264968Y1394358D01*
X2263343Y1384808D01*
X2263343Y1375206D01*
X2264968Y1365656D01*
X2268169Y1356563D01*
X2272893Y1348181D01*
X2279142Y1340408D01*
X2280818Y1337411D01*
X2281377Y1334008D01*
X2281377Y598576D01*
X2280615Y594664D01*
X2278430Y591362D01*
X2275128Y589178D01*
X2271217Y588416D01*
X2235555Y588416D01*
X2229256Y587705D01*
X2225852Y586536D01*
X2222500Y585927D01*
X2219147Y586536D01*
X2215743Y587705D01*
X2209444Y588416D01*
X2206345Y588416D01*
X2206345Y530656D01*
X2208377Y527405D01*
X2209088Y523697D01*
X2209088Y461314D01*
X2208377Y457606D01*
X2206345Y454355D01*
X2206345Y396595D01*
X2209444Y396595D01*
X2215743Y397306D01*
X2219147Y398475D01*
X2222500Y399084D01*
X2225852Y398475D01*
X2229256Y397306D01*
X2235555Y396595D01*
X2274417Y396595D01*
X2280767Y397306D01*
X2284120Y398475D01*
X2287473Y399084D01*
X2290826Y398475D01*
X2294229Y397306D01*
X2300579Y396595D01*
X2339441Y396595D01*
X2345740Y397306D01*
X2349144Y398475D01*
X2352497Y399084D01*
X2355850Y398475D01*
X2359253Y397306D01*
X2365552Y396595D01*
X2404414Y396595D01*
X2410764Y397306D01*
X2414117Y398475D01*
X2417470Y399084D01*
X2420874Y398475D01*
X2424226Y397306D01*
X2430576Y396595D01*
X2456027Y396595D01*
X2460091Y395732D01*
X2463444Y393344D01*
X2465628Y389839D01*
X2466797Y386435D01*
X2471623Y377799D01*
X2477820Y370078D01*
X2485288Y363575D01*
X2493721Y358394D01*
X2502916Y354685D01*
X2512568Y352602D01*
G37*
G36*
X4536338Y389077D02*
G01*
X4549394Y389077D01*
X4555744Y389788D01*
X4561179Y391718D01*
X4566107Y394817D01*
X4570171Y398881D01*
X4573270Y403809D01*
X4575200Y409244D01*
X4575911Y415594D01*
X4575911Y431139D01*
X4536338Y431139D01*
G37*
G36*
X4330547Y389077D02*
G01*
X4409440Y389077D01*
X4415739Y389788D01*
X4421225Y391718D01*
X4426102Y394817D01*
X4430217Y398881D01*
X4431385Y400761D01*
X4434230Y403707D01*
X4437938Y405333D01*
X4442053Y405333D01*
X4445762Y403707D01*
X4448606Y400761D01*
X4449775Y398881D01*
X4453890Y394817D01*
X4458766Y391718D01*
X4464253Y389788D01*
X4470552Y389077D01*
X4483608Y389077D01*
X4483608Y431139D01*
X4446066Y431139D01*
X4442206Y431901D01*
X4438904Y434136D01*
X4436668Y437438D01*
X4435906Y441299D01*
X4435906Y478688D01*
X4436668Y482600D01*
X4438904Y485851D01*
X4442206Y488086D01*
X4446066Y488848D01*
X4483608Y488848D01*
X4483608Y530910D01*
X4470552Y530910D01*
X4464253Y530199D01*
X4458766Y528269D01*
X4453890Y525221D01*
X4449775Y521106D01*
X4448606Y519226D01*
X4445762Y516280D01*
X4442053Y514705D01*
X4437938Y514705D01*
X4434230Y516280D01*
X4431385Y519226D01*
X4430217Y521106D01*
X4426102Y525221D01*
X4421225Y528269D01*
X4415739Y530199D01*
X4409440Y530910D01*
X4330547Y530910D01*
X4324248Y530199D01*
X4318812Y528269D01*
X4313885Y525221D01*
X4309821Y521106D01*
X4304284Y511860D01*
X4300931Y509473D01*
X4296867Y508609D01*
X4125823Y508609D01*
X4121861Y509422D01*
X4109821Y518414D01*
X4101185Y522782D01*
X4091990Y525576D01*
X4082440Y526846D01*
X4072788Y526389D01*
X4063339Y524357D01*
X4054398Y520801D01*
X4046169Y515721D01*
X4038955Y509371D01*
X4032859Y501853D01*
X4028186Y493420D01*
X4024985Y484327D01*
X4023360Y474827D01*
X4023360Y465175D01*
X4024985Y455676D01*
X4028186Y446582D01*
X4032859Y438150D01*
X4038955Y430631D01*
X4046169Y424281D01*
X4054398Y419201D01*
X4063339Y415645D01*
X4072788Y413613D01*
X4082440Y413156D01*
X4091990Y414426D01*
X4101185Y417220D01*
X4109821Y421589D01*
X4121861Y430580D01*
X4125823Y431393D01*
X4293920Y431393D01*
X4297832Y430631D01*
X4301134Y428396D01*
X4303318Y425094D01*
X4304080Y421233D01*
X4304080Y415594D01*
X4304792Y409244D01*
X4306722Y403809D01*
X4309821Y398881D01*
X4313885Y394817D01*
X4318812Y391718D01*
X4324248Y389788D01*
G37*
G36*
X1956663Y424332D02*
G01*
X1968347Y424332D01*
X1979930Y426059D01*
X1991156Y429514D01*
X2001723Y434593D01*
X2011375Y441198D01*
X2019960Y449173D01*
X2027275Y458317D01*
X2033117Y468477D01*
X2037384Y479399D01*
X2040026Y490829D01*
X2040940Y502869D01*
X2040940Y582117D01*
X2040026Y594156D01*
X2037384Y605586D01*
X2033117Y616508D01*
X2027275Y626668D01*
X2019960Y635812D01*
X2011375Y643788D01*
X2001723Y650392D01*
X1991156Y655472D01*
X1979930Y658926D01*
X1968347Y660654D01*
X1956663Y660654D01*
X1945081Y658926D01*
X1933854Y655472D01*
X1923338Y650392D01*
X1913636Y643788D01*
X1905050Y635812D01*
X1897735Y626668D01*
X1891893Y616508D01*
X1887626Y605586D01*
X1884984Y594156D01*
X1884121Y582117D01*
X1884121Y502869D01*
X1884984Y490829D01*
X1887626Y479399D01*
X1891893Y468477D01*
X1897735Y458317D01*
X1905050Y449173D01*
X1913636Y441198D01*
X1923338Y434593D01*
X1933854Y429514D01*
X1945081Y426059D01*
G37*
G36*
X2671673Y424332D02*
G01*
X2683357Y424332D01*
X2694940Y426059D01*
X2706166Y429514D01*
X2716682Y434593D01*
X2726385Y441198D01*
X2734970Y449173D01*
X2742285Y458317D01*
X2748127Y468477D01*
X2752394Y479399D01*
X2755036Y490829D01*
X2755900Y502869D01*
X2755900Y582117D01*
X2755036Y594156D01*
X2752394Y605586D01*
X2748127Y616508D01*
X2742285Y626668D01*
X2734970Y635812D01*
X2726385Y643788D01*
X2716682Y650392D01*
X2706166Y655472D01*
X2694940Y658926D01*
X2683357Y660654D01*
X2671673Y660654D01*
X2660091Y658926D01*
X2648864Y655472D01*
X2638298Y650392D01*
X2628646Y643788D01*
X2620060Y635812D01*
X2612745Y626668D01*
X2606903Y616508D01*
X2602585Y605586D01*
X2599994Y594156D01*
X2599080Y582117D01*
X2599080Y502869D01*
X2599994Y490829D01*
X2602585Y479399D01*
X2606903Y468477D01*
X2612745Y458317D01*
X2620060Y449173D01*
X2628646Y441198D01*
X2638298Y434593D01*
X2648864Y429514D01*
X2660091Y426059D01*
G37*
G36*
X4536338Y488848D02*
G01*
X4575911Y488848D01*
X4575911Y504443D01*
X4575200Y510743D01*
X4573270Y516229D01*
X4570171Y521106D01*
X4566107Y525221D01*
X4561179Y528269D01*
X4555744Y530199D01*
X4549394Y530910D01*
X4536338Y530910D01*
G37*
G36*
X2144064Y533857D02*
G01*
X2173630Y533857D01*
X2173630Y588416D01*
X2170582Y588416D01*
X2164232Y587705D01*
X2158796Y585774D01*
X2153869Y582726D01*
X2149805Y578612D01*
X2146706Y573735D01*
X2144776Y568248D01*
X2144064Y561949D01*
G37*
G36*
X3645662Y536244D02*
G01*
X3645662Y588670D01*
X3593337Y588670D01*
X3595420Y584149D01*
X3603244Y571906D01*
X3612489Y560679D01*
X3623106Y550722D01*
X3634892Y542137D01*
G37*
G36*
X3748328Y536244D02*
G01*
X3759098Y542137D01*
X3770884Y550722D01*
X3781450Y560679D01*
X3790746Y571906D01*
X3798570Y584149D01*
X3800652Y588670D01*
X3748328Y588670D01*
G37*
G36*
X1650085Y541578D02*
G01*
X1703425Y541578D01*
X1703425Y569925D01*
X1702714Y576275D01*
X1700784Y581710D01*
X1697685Y586638D01*
X1693621Y590702D01*
X1688693Y593801D01*
X1683257Y595680D01*
X1676907Y596392D01*
X1650085Y596392D01*
G37*
G36*
X1516583Y541578D02*
G01*
X1569872Y541578D01*
X1569872Y596392D01*
X1543050Y596392D01*
X1536750Y595680D01*
X1531264Y593801D01*
X1526387Y590702D01*
X1522272Y586638D01*
X1519224Y581710D01*
X1517294Y576275D01*
X1516583Y569925D01*
G37*
G36*
X3748328Y691337D02*
G01*
X3800652Y691337D01*
X3798570Y695807D01*
X3790746Y708101D01*
X3781450Y719328D01*
X3770884Y729284D01*
X3759098Y737870D01*
X3748328Y743762D01*
G37*
G36*
X3593337Y691337D02*
G01*
X3645662Y691337D01*
X3645662Y743762D01*
X3634892Y737870D01*
X3623106Y729284D01*
X3612489Y719328D01*
X3603244Y708101D01*
X3595420Y695807D01*
G37*
G36*
X1378864Y864108D02*
G01*
X1394409Y864108D01*
X1400759Y864819D01*
X1406194Y866698D01*
X1411122Y869797D01*
X1415186Y873912D01*
X1418285Y878789D01*
X1420215Y884275D01*
X1420926Y890574D01*
X1420926Y903681D01*
X1378864Y903681D01*
G37*
G36*
X1305560Y864108D02*
G01*
X1321155Y864108D01*
X1321155Y903681D01*
X1279093Y903681D01*
X1279093Y890574D01*
X1279804Y884275D01*
X1281734Y878789D01*
X1284782Y873912D01*
X1288897Y869797D01*
X1293774Y866698D01*
X1299260Y864819D01*
G37*
G36*
X158851Y919124D02*
G01*
X179425Y919124D01*
X185724Y919835D01*
X191211Y921715D01*
X196088Y924814D01*
X200202Y928878D01*
X203250Y933805D01*
X205181Y939241D01*
X205892Y945591D01*
X205892Y953668D01*
X158851Y953668D01*
G37*
G36*
X340563Y919124D02*
G01*
X449427Y919124D01*
X455777Y919835D01*
X461213Y921715D01*
X466140Y924814D01*
X470204Y928878D01*
X471932Y931621D01*
X474218Y934161D01*
X477164Y935837D01*
X480568Y936396D01*
X663092Y936396D01*
X667004Y935583D01*
X670356Y933348D01*
X675436Y928166D01*
X680262Y925118D01*
X685749Y923188D01*
X692048Y922477D01*
X798118Y922477D01*
X804468Y923188D01*
X809904Y925118D01*
X814832Y928166D01*
X818896Y932281D01*
X821994Y937158D01*
X823874Y942644D01*
X824585Y948944D01*
X824585Y1001014D01*
X823874Y1007364D01*
X821994Y1012799D01*
X819302Y1017066D01*
X817930Y1020622D01*
X817930Y1024382D01*
X819302Y1027887D01*
X821994Y1032205D01*
X823874Y1037640D01*
X824585Y1043990D01*
X824585Y1096010D01*
X823874Y1102360D01*
X821994Y1107795D01*
X819302Y1112113D01*
X817930Y1115618D01*
X817930Y1119378D01*
X819302Y1122883D01*
X821994Y1127201D01*
X823874Y1132636D01*
X824585Y1138986D01*
X824585Y1191006D01*
X823874Y1197356D01*
X821994Y1202791D01*
X818896Y1207719D01*
X814832Y1211783D01*
X809904Y1214882D01*
X804468Y1216812D01*
X798118Y1217523D01*
X692048Y1217523D01*
X685749Y1216812D01*
X680262Y1214882D01*
X674674Y1211376D01*
X670864Y1209903D01*
X666800Y1210106D01*
X663143Y1211884D01*
X660450Y1214932D01*
X659180Y1218793D01*
X617931Y1218793D01*
X617931Y1213764D01*
X617169Y1209852D01*
X614984Y1206601D01*
X611682Y1204366D01*
X607771Y1203604D01*
X572211Y1203604D01*
X568299Y1204366D01*
X565048Y1206601D01*
X562813Y1209852D01*
X562051Y1213764D01*
X562051Y1218793D01*
X520903Y1218793D01*
X520903Y1213764D01*
X520141Y1209852D01*
X517906Y1206601D01*
X514604Y1204366D01*
X510743Y1203604D01*
X480568Y1203604D01*
X477215Y1204163D01*
X474218Y1205839D01*
X471932Y1208379D01*
X470204Y1211122D01*
X466140Y1215186D01*
X461213Y1218285D01*
X455777Y1220216D01*
X449427Y1220927D01*
X340563Y1220927D01*
X334264Y1220216D01*
X328777Y1218285D01*
X323900Y1215186D01*
X319786Y1211122D01*
X316738Y1206195D01*
X314807Y1200759D01*
X314096Y1194409D01*
X314096Y1135583D01*
X314807Y1129233D01*
X316738Y1123797D01*
X318668Y1119378D01*
X318668Y1115618D01*
X316738Y1111199D01*
X314807Y1105763D01*
X314096Y1099413D01*
X314096Y1040587D01*
X314807Y1034237D01*
X316738Y1028801D01*
X318668Y1024382D01*
X318668Y1020622D01*
X316738Y1016203D01*
X314807Y1010767D01*
X314096Y1004468D01*
X314096Y945591D01*
X314807Y939241D01*
X316738Y933805D01*
X319786Y928878D01*
X323900Y924814D01*
X328777Y921715D01*
X334264Y919835D01*
G37*
G36*
X1008024Y922477D02*
G01*
X1027937Y922477D01*
X1034237Y923188D01*
X1039723Y925118D01*
X1044600Y928166D01*
X1048715Y932281D01*
X1051763Y937158D01*
X1053693Y942644D01*
X1054404Y948944D01*
X1054404Y955344D01*
X1008024Y955344D01*
G37*
G36*
X921867Y922477D02*
G01*
X941730Y922477D01*
X941730Y955344D01*
X895400Y955344D01*
X895400Y948944D01*
X896112Y942644D01*
X897991Y937158D01*
X901090Y932281D01*
X905205Y928166D01*
X910082Y925118D01*
X915568Y923188D01*
G37*
G36*
X3216351Y949096D02*
G01*
X3229406Y949096D01*
X3235756Y949807D01*
X3241192Y951737D01*
X3246120Y954786D01*
X3250184Y958900D01*
X3253282Y963777D01*
X3255162Y969264D01*
X3255873Y975563D01*
X3255873Y991158D01*
X3216351Y991158D01*
G37*
G36*
X4530547Y1019098D02*
G01*
X4543653Y1019098D01*
X4543653Y1061161D01*
X4504080Y1061161D01*
X4504080Y1045565D01*
X4504791Y1039266D01*
X4506722Y1033780D01*
X4509820Y1028903D01*
X4513884Y1024788D01*
X4518812Y1021689D01*
X4524248Y1019810D01*
G37*
G36*
X3216351Y1048867D02*
G01*
X3255873Y1048867D01*
X3255873Y1064412D01*
X3255162Y1070762D01*
X3253282Y1076198D01*
X3250184Y1081125D01*
X3246120Y1085189D01*
X3241192Y1088288D01*
X3235756Y1090218D01*
X3229406Y1090930D01*
X3216351Y1090930D01*
G37*
G36*
X4504080Y1118870D02*
G01*
X4543653Y1118870D01*
X4543653Y1160881D01*
X4530547Y1160881D01*
X4524248Y1160170D01*
X4518812Y1158290D01*
X4513884Y1155192D01*
X4509820Y1151128D01*
X4506722Y1146200D01*
X4504791Y1140764D01*
X4504080Y1134414D01*
G37*
G36*
X158851Y1186332D02*
G01*
X205892Y1186332D01*
X205892Y1194409D01*
X205181Y1200759D01*
X203250Y1206195D01*
X200202Y1211122D01*
X196088Y1215186D01*
X191211Y1218285D01*
X185724Y1220216D01*
X179425Y1220927D01*
X158851Y1220927D01*
G37*
G36*
X617931Y1271828D02*
G01*
X659130Y1271828D01*
X659130Y1285087D01*
X658418Y1291386D01*
X656488Y1296873D01*
X653389Y1301750D01*
X649325Y1305864D01*
X644398Y1308912D01*
X638962Y1310843D01*
X632612Y1311554D01*
X617931Y1311554D01*
G37*
G36*
X520903Y1271828D02*
G01*
X562051Y1271828D01*
X562051Y1311554D01*
X547370Y1311554D01*
X541070Y1310843D01*
X535584Y1308912D01*
X530707Y1305864D01*
X526592Y1301750D01*
X523493Y1296873D01*
X521614Y1291386D01*
X520903Y1285087D01*
G37*
G36*
X4225493Y1883562D02*
G01*
X4248607Y1883562D01*
X4254906Y1884324D01*
X4260392Y1886204D01*
X4265269Y1889302D01*
X4269384Y1893366D01*
X4272432Y1898294D01*
X4274362Y1903730D01*
X4275074Y1910080D01*
X4275074Y1918157D01*
X4225493Y1918157D01*
G37*
G36*
X4129735Y1883562D02*
G01*
X4152798Y1883562D01*
X4152798Y1918157D01*
X4103268Y1918157D01*
X4103268Y1910080D01*
X4103979Y1903730D01*
X4105859Y1898294D01*
X4108958Y1893366D01*
X4113072Y1889302D01*
X4117949Y1886204D01*
X4123385Y1884324D01*
G37*
G36*
X1785569Y1895043D02*
G01*
X1831187Y1895043D01*
X1831187Y1938375D01*
X1759102Y1938375D01*
X1759102Y1921560D01*
X1759813Y1915210D01*
X1761743Y1909775D01*
X1764792Y1904847D01*
X1768906Y1900783D01*
X1773783Y1897684D01*
X1779270Y1895754D01*
G37*
G36*
X1948891Y1895043D02*
G01*
X1994458Y1895043D01*
X2000757Y1895754D01*
X2006244Y1897684D01*
X2011121Y1900783D01*
X2015236Y1904847D01*
X2018284Y1909775D01*
X2020214Y1915210D01*
X2020925Y1921560D01*
X2020925Y1938375D01*
X1948891Y1938375D01*
G37*
G36*
X3748836Y1895093D02*
G01*
X3794404Y1895093D01*
X3800754Y1895805D01*
X3806190Y1897684D01*
X3811117Y1900783D01*
X3815181Y1904847D01*
X3818280Y1909775D01*
X3820160Y1915210D01*
X3820871Y1921560D01*
X3820871Y1938375D01*
X3748836Y1938375D01*
G37*
G36*
X3585565Y1895093D02*
G01*
X3631133Y1895093D01*
X3631133Y1938375D01*
X3559098Y1938375D01*
X3559098Y1921560D01*
X3559810Y1915210D01*
X3561689Y1909775D01*
X3564788Y1904847D01*
X3568852Y1900783D01*
X3573779Y1897684D01*
X3579215Y1895805D01*
G37*
G36*
X360578Y1959102D02*
G01*
X373684Y1959102D01*
X373684Y2001164D01*
X334111Y2001164D01*
X334111Y1985568D01*
X334822Y1979269D01*
X336702Y1973783D01*
X339801Y1968906D01*
X343916Y1964791D01*
X348792Y1961692D01*
X354279Y1959813D01*
G37*
G36*
X334111Y2058822D02*
G01*
X373684Y2058822D01*
X373684Y2100884D01*
X360578Y2100884D01*
X354279Y2100173D01*
X348792Y2098294D01*
X343916Y2095195D01*
X339801Y2091131D01*
X336702Y2086203D01*
X334822Y2080768D01*
X334111Y2074418D01*
G37*
G36*
X3940860Y2221839D02*
G01*
X3982059Y2221839D01*
X3982059Y2261565D01*
X3967378Y2261565D01*
X3961028Y2260854D01*
X3955592Y2258923D01*
X3950665Y2255824D01*
X3946601Y2251760D01*
X3943502Y2246833D01*
X3941572Y2241397D01*
X3940860Y2235047D01*
G37*
G36*
X4037939Y2221839D02*
G01*
X4079087Y2221839D01*
X4079087Y2235047D01*
X4078376Y2241397D01*
X4076496Y2246833D01*
X4073398Y2251760D01*
X4069283Y2255824D01*
X4064406Y2258923D01*
X4058920Y2260854D01*
X4052620Y2261565D01*
X4037939Y2261565D01*
G37*
G36*
X812444Y2253183D02*
G01*
X821994Y2254402D01*
X831189Y2257247D01*
X839825Y2261565D01*
X847598Y2267305D01*
X854252Y2274265D01*
X859637Y2282291D01*
X863650Y2291080D01*
X866038Y2300376D01*
X866902Y2309977D01*
X866038Y2319629D01*
X863650Y2328926D01*
X859637Y2337714D01*
X854252Y2345740D01*
X847598Y2352700D01*
X839825Y2358440D01*
X831189Y2362758D01*
X821994Y2365603D01*
X812444Y2366822D01*
X802792Y2366416D01*
X793343Y2364384D01*
X784402Y2360777D01*
X776173Y2355748D01*
X770991Y2351125D01*
X767842Y2349246D01*
X764235Y2348585D01*
X759460Y2348585D01*
X755548Y2349398D01*
X752246Y2351582D01*
X692404Y2411476D01*
X690168Y2414727D01*
X689406Y2418638D01*
X689406Y2545842D01*
X688695Y2552141D01*
X686765Y2557627D01*
X683717Y2562504D01*
X679602Y2566619D01*
X674725Y2569667D01*
X669239Y2571597D01*
X662940Y2572308D01*
X515569Y2572308D01*
X509270Y2571597D01*
X503783Y2569667D01*
X498906Y2566619D01*
X494792Y2562504D01*
X491693Y2557627D01*
X489813Y2552141D01*
X489102Y2545842D01*
X489102Y2374188D01*
X489813Y2367838D01*
X491693Y2362403D01*
X494792Y2357475D01*
X498906Y2353411D01*
X503783Y2350312D01*
X509270Y2348382D01*
X515569Y2347671D01*
X642721Y2347671D01*
X646633Y2346909D01*
X649935Y2344724D01*
X711606Y2283053D01*
X717804Y2277922D01*
X724509Y2274366D01*
X731723Y2272182D01*
X739749Y2271369D01*
X764286Y2271369D01*
X767842Y2270709D01*
X770991Y2268829D01*
X776173Y2264257D01*
X784402Y2259228D01*
X793343Y2255621D01*
X802792Y2253589D01*
G37*
G36*
X314248Y2347671D02*
G01*
X344424Y2347671D01*
X350774Y2348382D01*
X356209Y2350312D01*
X361137Y2353411D01*
X365201Y2357475D01*
X368300Y2362403D01*
X370179Y2367838D01*
X370890Y2374188D01*
X370890Y2410460D01*
X314248Y2410460D01*
G37*
G36*
X197053Y2347671D02*
G01*
X227279Y2347671D01*
X227279Y2410460D01*
X170586Y2410460D01*
X170586Y2374188D01*
X171297Y2367838D01*
X173228Y2362403D01*
X176276Y2357475D01*
X180390Y2353411D01*
X185267Y2350312D01*
X190754Y2348382D01*
G37*
G36*
X2438857Y2446883D02*
G01*
X2556967Y2446883D01*
X2556967Y2591460D01*
X2412390Y2591460D01*
X2412390Y2473350D01*
X2413101Y2467051D01*
X2415032Y2461564D01*
X2418080Y2456688D01*
X2422194Y2452573D01*
X2427071Y2449525D01*
X2432558Y2447594D01*
G37*
G36*
X2819654Y2446883D02*
G01*
X2937713Y2446883D01*
X2944063Y2447594D01*
X2949498Y2449525D01*
X2954426Y2452573D01*
X2958490Y2456688D01*
X2961589Y2461564D01*
X2963519Y2467051D01*
X2964230Y2473350D01*
X2964230Y2591460D01*
X2819654Y2591460D01*
G37*
G36*
X314248Y2509520D02*
G01*
X370890Y2509520D01*
X370890Y2545842D01*
X370179Y2552141D01*
X368300Y2557627D01*
X365201Y2562504D01*
X361137Y2566619D01*
X356209Y2569667D01*
X350774Y2571597D01*
X344424Y2572308D01*
X314248Y2572308D01*
G37*
G36*
X170586Y2509520D02*
G01*
X227279Y2509520D01*
X227279Y2572308D01*
X197053Y2572308D01*
X190754Y2571597D01*
X185267Y2569667D01*
X180390Y2566619D01*
X176276Y2562504D01*
X173228Y2557627D01*
X171297Y2552141D01*
X170586Y2545842D01*
G37*
G36*
X5014925Y2650896D02*
G01*
X5028133Y2650896D01*
X5028133Y2692044D01*
X4988458Y2692044D01*
X4988458Y2677363D01*
X4989169Y2671064D01*
X4991049Y2665577D01*
X4994148Y2660700D01*
X4998212Y2656586D01*
X5003139Y2653487D01*
X5008575Y2651607D01*
G37*
G36*
X5081168Y2650896D02*
G01*
X5094427Y2650896D01*
X5100726Y2651607D01*
X5106212Y2653487D01*
X5111089Y2656586D01*
X5115204Y2660700D01*
X5118252Y2665577D01*
X5120386Y2671673D01*
X5122519Y2675229D01*
X5125923Y2677617D01*
X5129987Y2678480D01*
X5134051Y2677617D01*
X5137454Y2675229D01*
X5139588Y2671673D01*
X5141722Y2665577D01*
X5144770Y2660700D01*
X5148884Y2656586D01*
X5153761Y2653487D01*
X5159248Y2651607D01*
X5165547Y2650896D01*
X5245049Y2650896D01*
X5251399Y2651607D01*
X5256834Y2653487D01*
X5261762Y2656586D01*
X5265826Y2660700D01*
X5268925Y2665577D01*
X5270855Y2671064D01*
X5271566Y2677363D01*
X5271566Y2727401D01*
X5272328Y2731262D01*
X5274513Y2734564D01*
X5286959Y2747010D01*
X5292039Y2753258D01*
X5295595Y2759913D01*
X5297830Y2767126D01*
X5298592Y2775153D01*
X5298592Y2864307D01*
X5299354Y2868117D01*
X5301437Y2871368D01*
X5304231Y2874264D01*
X5309616Y2882290D01*
X5313629Y2891078D01*
X5316016Y2900375D01*
X5316880Y2909976D01*
X5316016Y2919628D01*
X5313629Y2928924D01*
X5309616Y2937713D01*
X5304231Y2945739D01*
X5297576Y2952699D01*
X5289804Y2958439D01*
X5281168Y2962757D01*
X5271973Y2965602D01*
X5262422Y2966821D01*
X5252770Y2966415D01*
X5243322Y2964383D01*
X5234381Y2960776D01*
X5226151Y2955747D01*
X5218938Y2949346D01*
X5212842Y2941828D01*
X5208168Y2933446D01*
X5204968Y2924352D01*
X5203342Y2914802D01*
X5203342Y2905201D01*
X5204968Y2895650D01*
X5208168Y2886557D01*
X5212842Y2878175D01*
X5219141Y2870403D01*
X5220817Y2867406D01*
X5221376Y2864002D01*
X5221376Y2799283D01*
X5220614Y2795371D01*
X5218430Y2792069D01*
X5215128Y2789885D01*
X5211216Y2789123D01*
X5165547Y2789123D01*
X5159248Y2788412D01*
X5153761Y2786481D01*
X5148884Y2783382D01*
X5144770Y2779318D01*
X5141722Y2774391D01*
X5139588Y2768346D01*
X5137454Y2764790D01*
X5134051Y2762351D01*
X5129987Y2761538D01*
X5125923Y2762351D01*
X5122519Y2764790D01*
X5120386Y2768346D01*
X5118252Y2774391D01*
X5115204Y2779318D01*
X5111089Y2783382D01*
X5106212Y2786481D01*
X5100726Y2788412D01*
X5094427Y2789123D01*
X5081168Y2789123D01*
X5081168Y2747924D01*
X5128920Y2747924D01*
X5132832Y2747162D01*
X5136083Y2744978D01*
X5138318Y2741676D01*
X5139080Y2737764D01*
X5139080Y2702204D01*
X5138318Y2698292D01*
X5136083Y2695041D01*
X5132832Y2692806D01*
X5128920Y2692044D01*
X5081168Y2692044D01*
G37*
G36*
X4988458Y2747924D02*
G01*
X5028133Y2747924D01*
X5028133Y2789123D01*
X5014925Y2789123D01*
X5008575Y2788412D01*
X5003139Y2786481D01*
X4998212Y2783382D01*
X4994148Y2779318D01*
X4991049Y2774391D01*
X4989169Y2768955D01*
X4988458Y2762605D01*
G37*
G36*
X2819654Y2854147D02*
G01*
X2964230Y2854147D01*
X2964230Y2972206D01*
X2963519Y2978556D01*
X2961589Y2983992D01*
X2958490Y2988919D01*
X2954426Y2992983D01*
X2949498Y2996082D01*
X2944063Y2997962D01*
X2937713Y2998673D01*
X2819654Y2998673D01*
G37*
G36*
X2412390Y2854147D02*
G01*
X2556967Y2854147D01*
X2556967Y2998673D01*
X2438857Y2998673D01*
X2432558Y2997962D01*
X2427071Y2996082D01*
X2422194Y2992983D01*
X2418080Y2988919D01*
X2415032Y2983992D01*
X2413101Y2978556D01*
X2412390Y2972206D01*
G37*
G36*
X2248611Y3640582D02*
G01*
X2265426Y3640582D01*
X2271674Y3641293D01*
X2278532Y3643782D01*
X2281986Y3644392D01*
X2285441Y3643782D01*
X2292299Y3641293D01*
X2298547Y3640582D01*
X2392426Y3640582D01*
X2398674Y3641293D01*
X2405532Y3643782D01*
X2408986Y3644392D01*
X2412441Y3643782D01*
X2419299Y3641293D01*
X2425547Y3640582D01*
X2519426Y3640582D01*
X2525674Y3641293D01*
X2532532Y3643782D01*
X2535986Y3644392D01*
X2539441Y3643782D01*
X2546299Y3641293D01*
X2552547Y3640582D01*
X2646426Y3640582D01*
X2652674Y3641293D01*
X2659532Y3643782D01*
X2662986Y3644392D01*
X2666441Y3643782D01*
X2673299Y3641293D01*
X2679547Y3640582D01*
X2773426Y3640582D01*
X2779725Y3641293D01*
X2786532Y3643731D01*
X2789986Y3644341D01*
X2793441Y3643731D01*
X2800299Y3641242D01*
X2806547Y3640582D01*
X2900426Y3640582D01*
X2906674Y3641242D01*
X2913532Y3643731D01*
X2916986Y3644341D01*
X2920441Y3643731D01*
X2927299Y3641242D01*
X2933547Y3640582D01*
X3027426Y3640582D01*
X3033674Y3641242D01*
X3040532Y3643731D01*
X3043986Y3644341D01*
X3047441Y3643731D01*
X3054299Y3641242D01*
X3060547Y3640582D01*
X3154426Y3640582D01*
X3160674Y3641242D01*
X3167532Y3643731D01*
X3170986Y3644341D01*
X3174441Y3643731D01*
X3181299Y3641242D01*
X3187547Y3640582D01*
X3281426Y3640582D01*
X3287674Y3641242D01*
X3294532Y3643731D01*
X3297986Y3644341D01*
X3301441Y3643731D01*
X3308299Y3641242D01*
X3314547Y3640582D01*
X3408426Y3640582D01*
X3414776Y3641293D01*
X3420211Y3643172D01*
X3425139Y3646271D01*
X3429203Y3650335D01*
X3432301Y3655263D01*
X3434181Y3660698D01*
X3434892Y3667048D01*
X3434892Y3875887D01*
X3434181Y3882237D01*
X3432301Y3887673D01*
X3429203Y3892600D01*
X3425139Y3896664D01*
X3420211Y3899763D01*
X3414776Y3901643D01*
X3408426Y3902354D01*
X3314547Y3902354D01*
X3308299Y3901694D01*
X3301441Y3899204D01*
X3297986Y3898595D01*
X3294532Y3899204D01*
X3287674Y3901694D01*
X3281426Y3902354D01*
X3187547Y3902354D01*
X3181299Y3901694D01*
X3174441Y3899204D01*
X3170986Y3898595D01*
X3167532Y3899204D01*
X3160674Y3901694D01*
X3154426Y3902354D01*
X3060547Y3902354D01*
X3054299Y3901694D01*
X3047441Y3899204D01*
X3043986Y3898595D01*
X3040532Y3899204D01*
X3033674Y3901694D01*
X3027426Y3902354D01*
X2933547Y3902354D01*
X2927299Y3901694D01*
X2920441Y3899204D01*
X2916986Y3898595D01*
X2913532Y3899204D01*
X2906674Y3901694D01*
X2900426Y3902354D01*
X2806547Y3902354D01*
X2800299Y3901694D01*
X2793492Y3899204D01*
X2790037Y3898595D01*
X2786532Y3899204D01*
X2779674Y3901694D01*
X2773426Y3902405D01*
X2679547Y3902405D01*
X2673299Y3901694D01*
X2666441Y3899204D01*
X2662986Y3898595D01*
X2659532Y3899204D01*
X2652674Y3901694D01*
X2646426Y3902405D01*
X2552547Y3902405D01*
X2546299Y3901694D01*
X2539441Y3899204D01*
X2535986Y3898595D01*
X2532532Y3899204D01*
X2525674Y3901694D01*
X2519426Y3902405D01*
X2425547Y3902405D01*
X2419299Y3901694D01*
X2412441Y3899204D01*
X2408986Y3898595D01*
X2405532Y3899204D01*
X2398674Y3901694D01*
X2392426Y3902405D01*
X2298547Y3902405D01*
X2292299Y3901694D01*
X2285441Y3899204D01*
X2281986Y3898595D01*
X2278532Y3899204D01*
X2271674Y3901694D01*
X2265426Y3902405D01*
X2248611Y3902405D01*
X2248611Y3830320D01*
X2261920Y3830320D01*
X2265832Y3829558D01*
X2269134Y3827373D01*
X2271318Y3824071D01*
X2272080Y3820160D01*
X2272080Y3722776D01*
X2271318Y3718915D01*
X2269134Y3715613D01*
X2265832Y3713429D01*
X2261920Y3712616D01*
X2248611Y3712616D01*
G37*
G36*
X142443Y3733139D02*
G01*
X151993Y3734409D01*
X161188Y3737203D01*
X169824Y3741572D01*
X177596Y3747312D01*
X184251Y3754272D01*
X189636Y3762248D01*
X193649Y3771036D01*
X196037Y3780383D01*
X196900Y3789984D01*
X196037Y3799586D01*
X193649Y3808933D01*
X189636Y3817721D01*
X184251Y3825697D01*
X181457Y3828643D01*
X179324Y3831894D01*
X178612Y3835704D01*
X178612Y4051147D01*
X179273Y4054754D01*
X181203Y4057904D01*
X184099Y4060190D01*
X187655Y4061256D01*
X190754Y4061612D01*
X196189Y4063492D01*
X201117Y4066590D01*
X205181Y4070654D01*
X208279Y4075582D01*
X210413Y4081678D01*
X212547Y4085183D01*
X215950Y4087622D01*
X220014Y4088434D01*
X224078Y4087622D01*
X227431Y4085183D01*
X229565Y4081678D01*
X231698Y4075582D01*
X234797Y4070654D01*
X238861Y4066590D01*
X243789Y4063492D01*
X249224Y4061612D01*
X255574Y4060901D01*
X268833Y4060901D01*
X268833Y4102049D01*
X221081Y4102049D01*
X217170Y4102811D01*
X213867Y4104995D01*
X211683Y4108297D01*
X210921Y4112209D01*
X210921Y4147769D01*
X211683Y4151680D01*
X213867Y4154982D01*
X217170Y4157167D01*
X221081Y4157929D01*
X268833Y4157929D01*
X268833Y4199077D01*
X255574Y4199077D01*
X249224Y4198366D01*
X243789Y4196486D01*
X238861Y4193387D01*
X234797Y4189323D01*
X231698Y4184396D01*
X229565Y4178350D01*
X227431Y4174794D01*
X224078Y4172356D01*
X220014Y4171543D01*
X215950Y4172356D01*
X212547Y4174794D01*
X210413Y4178350D01*
X208279Y4184396D01*
X205181Y4189323D01*
X201117Y4193387D01*
X196189Y4196486D01*
X190754Y4198366D01*
X184404Y4199077D01*
X104902Y4199077D01*
X98602Y4198366D01*
X93116Y4196486D01*
X88239Y4193387D01*
X84124Y4189323D01*
X81076Y4184396D01*
X79146Y4178960D01*
X78435Y4172610D01*
X78435Y4087368D01*
X79146Y4081018D01*
X81076Y4075582D01*
X84124Y4070654D01*
X88239Y4066590D01*
X93116Y4063492D01*
X94589Y4062984D01*
X98145Y4060850D01*
X100533Y4057497D01*
X101396Y4053433D01*
X101396Y3835958D01*
X100787Y3832555D01*
X99161Y3829558D01*
X92862Y3821836D01*
X88188Y3813403D01*
X84988Y3804310D01*
X83362Y3794810D01*
X83362Y3785158D01*
X84988Y3775659D01*
X88188Y3766565D01*
X92862Y3758133D01*
X98958Y3750614D01*
X106172Y3744264D01*
X114401Y3739184D01*
X123342Y3735628D01*
X132791Y3733596D01*
G37*
G36*
X2145080Y3830320D02*
G01*
X2188413Y3830320D01*
X2188413Y3902405D01*
X2171547Y3902405D01*
X2165248Y3901694D01*
X2159812Y3899763D01*
X2154885Y3896715D01*
X2150821Y3892600D01*
X2147722Y3887724D01*
X2145792Y3882237D01*
X2145080Y3875938D01*
G37*
G36*
X321818Y4060901D02*
G01*
X335076Y4060901D01*
X341376Y4061612D01*
X346862Y4063492D01*
X351739Y4066590D01*
X355854Y4070654D01*
X358952Y4075582D01*
X360832Y4081018D01*
X361543Y4087368D01*
X361543Y4102049D01*
X321818Y4102049D01*
G37*
G36*
X321818Y4157929D02*
G01*
X361543Y4157929D01*
X361543Y4172610D01*
X360832Y4178960D01*
X358952Y4184396D01*
X355854Y4189323D01*
X351739Y4193387D01*
X346862Y4196486D01*
X341376Y4198366D01*
X335076Y4199077D01*
X321818Y4199077D01*
G37*
G36*
X2301646Y4445203D02*
G01*
X2339187Y4445203D01*
X2339187Y4509211D01*
X2275179Y4509211D01*
X2275179Y4471670D01*
X2275890Y4465320D01*
X2277821Y4459884D01*
X2280869Y4454956D01*
X2284984Y4450892D01*
X2289860Y4447794D01*
X2295347Y4445914D01*
G37*
G36*
X2440787Y4445203D02*
G01*
X2478328Y4445203D01*
X2484628Y4445914D01*
X2490114Y4447794D01*
X2494991Y4450892D01*
X2499106Y4454956D01*
X2502204Y4459884D01*
X2504084Y4465320D01*
X2504795Y4471670D01*
X2504795Y4509211D01*
X2440787Y4509211D01*
G37*
G36*
X3144774Y4445406D02*
G01*
X3159201Y4445406D01*
X3173526Y4447235D01*
X3187446Y4450842D01*
X3200857Y4456125D01*
X3213506Y4463084D01*
X3225139Y4471568D01*
X3235655Y4481423D01*
X3244850Y4492498D01*
X3252571Y4504690D01*
X3258718Y4517745D01*
X3263188Y4531461D01*
X3265881Y4545584D01*
X3266795Y4560011D01*
X3265881Y4574387D01*
X3263188Y4588560D01*
X3258718Y4602226D01*
X3252571Y4615281D01*
X3244850Y4627473D01*
X3235655Y4638548D01*
X3225139Y4648454D01*
X3213506Y4656886D01*
X3200857Y4663846D01*
X3187446Y4669180D01*
X3173526Y4672736D01*
X3159201Y4674565D01*
X3144774Y4674565D01*
X3130499Y4672736D01*
X3116529Y4669180D01*
X3103118Y4663846D01*
X3090468Y4656886D01*
X3078835Y4648454D01*
X3068320Y4638548D01*
X3059125Y4627473D01*
X3051403Y4615281D01*
X3045256Y4602226D01*
X3040837Y4588560D01*
X3038094Y4574387D01*
X3037230Y4560011D01*
X3038094Y4545584D01*
X3040837Y4531461D01*
X3045256Y4517745D01*
X3051403Y4504690D01*
X3059125Y4492498D01*
X3068320Y4481423D01*
X3078835Y4471568D01*
X3090468Y4463084D01*
X3103118Y4456125D01*
X3116529Y4450842D01*
X3130499Y4447235D01*
G37*
G36*
X2636774Y4445406D02*
G01*
X2651201Y4445406D01*
X2665526Y4447235D01*
X2679446Y4450842D01*
X2692857Y4456125D01*
X2705506Y4463084D01*
X2717139Y4471568D01*
X2727655Y4481423D01*
X2736850Y4492498D01*
X2744571Y4504690D01*
X2750718Y4517745D01*
X2755188Y4531461D01*
X2757881Y4545584D01*
X2758795Y4560011D01*
X2757881Y4574387D01*
X2755188Y4588560D01*
X2750718Y4602226D01*
X2744571Y4615281D01*
X2736850Y4627473D01*
X2727655Y4638548D01*
X2717139Y4648454D01*
X2705506Y4656886D01*
X2692857Y4663846D01*
X2679446Y4669180D01*
X2665526Y4672736D01*
X2651201Y4674565D01*
X2636774Y4674565D01*
X2622499Y4672736D01*
X2608529Y4669180D01*
X2595118Y4663846D01*
X2582468Y4656886D01*
X2570835Y4648454D01*
X2560320Y4638548D01*
X2551125Y4627473D01*
X2543403Y4615281D01*
X2537256Y4602226D01*
X2532837Y4588560D01*
X2530094Y4574387D01*
X2529230Y4560011D01*
X2530094Y4545584D01*
X2532837Y4531461D01*
X2537256Y4517745D01*
X2543403Y4504690D01*
X2551125Y4492498D01*
X2560320Y4481423D01*
X2570835Y4471568D01*
X2582468Y4463084D01*
X2595118Y4456125D01*
X2608529Y4450842D01*
X2622499Y4447235D01*
G37*
G36*
X2890774Y4445406D02*
G01*
X2905201Y4445406D01*
X2919526Y4447235D01*
X2933446Y4450842D01*
X2946857Y4456125D01*
X2959506Y4463084D01*
X2971139Y4471568D01*
X2981655Y4481423D01*
X2990850Y4492498D01*
X2998571Y4504690D01*
X3004718Y4517745D01*
X3009188Y4531461D01*
X3011881Y4545584D01*
X3012795Y4560011D01*
X3011881Y4574387D01*
X3009188Y4588560D01*
X3004718Y4602226D01*
X2998571Y4615281D01*
X2990850Y4627473D01*
X2981655Y4638548D01*
X2971139Y4648454D01*
X2959506Y4656886D01*
X2946857Y4663846D01*
X2933446Y4669180D01*
X2919526Y4672736D01*
X2905201Y4674565D01*
X2890774Y4674565D01*
X2876499Y4672736D01*
X2862529Y4669180D01*
X2849118Y4663846D01*
X2836468Y4656886D01*
X2824835Y4648454D01*
X2814320Y4638548D01*
X2805125Y4627473D01*
X2797403Y4615281D01*
X2791256Y4602226D01*
X2786837Y4588560D01*
X2784094Y4574387D01*
X2783230Y4560011D01*
X2784094Y4545584D01*
X2786837Y4531461D01*
X2791256Y4517745D01*
X2797403Y4504690D01*
X2805125Y4492498D01*
X2814320Y4481423D01*
X2824835Y4471568D01*
X2836468Y4463084D01*
X2849118Y4456125D01*
X2862529Y4450842D01*
X2876499Y4447235D01*
G37*
G36*
X2275179Y4610811D02*
G01*
X2339187Y4610811D01*
X2339187Y4674819D01*
X2301646Y4674819D01*
X2295347Y4674108D01*
X2289860Y4672177D01*
X2284984Y4669078D01*
X2280869Y4665014D01*
X2277821Y4660087D01*
X2275890Y4654651D01*
X2275179Y4648301D01*
G37*
G36*
X2440787Y4610811D02*
G01*
X2504795Y4610811D01*
X2504795Y4648301D01*
X2504084Y4654651D01*
X2502204Y4660087D01*
X2499106Y4665014D01*
X2494991Y4669078D01*
X2490114Y4672177D01*
X2484628Y4674108D01*
X2478328Y4674819D01*
X2440787Y4674819D01*
G37*
G36*
X880008Y4641443D02*
G01*
X887526Y4642154D01*
X894740Y4644390D01*
X901395Y4647946D01*
X907287Y4652721D01*
X910691Y4656886D01*
X912520Y4658614D01*
X917600Y4662373D01*
X924255Y4669332D01*
X929640Y4677359D01*
X933653Y4686147D01*
X936040Y4695444D01*
X936904Y4705045D01*
X936040Y4714697D01*
X933653Y4723993D01*
X929640Y4732782D01*
X924255Y4740808D01*
X921410Y4743754D01*
X919327Y4747006D01*
X918616Y4750765D01*
X918616Y4775098D01*
X919378Y4779010D01*
X921562Y4782312D01*
X967181Y4827930D01*
X970483Y4830114D01*
X974394Y4830876D01*
X1024432Y4830876D01*
X1030732Y4831588D01*
X1036218Y4833518D01*
X1041095Y4836566D01*
X1045210Y4840681D01*
X1048258Y4845558D01*
X1050391Y4851654D01*
X1052525Y4855210D01*
X1055928Y4857597D01*
X1059992Y4858461D01*
X1064056Y4857597D01*
X1067460Y4855210D01*
X1069594Y4851654D01*
X1071727Y4845558D01*
X1074775Y4840681D01*
X1078890Y4836566D01*
X1083767Y4833518D01*
X1089253Y4831588D01*
X1095552Y4830876D01*
X1175054Y4830876D01*
X1181404Y4831588D01*
X1186840Y4833518D01*
X1191768Y4836566D01*
X1195832Y4840681D01*
X1198930Y4845558D01*
X1200861Y4851044D01*
X1201572Y4857343D01*
X1201572Y4866233D01*
X1202334Y4870094D01*
X1204518Y4873396D01*
X1207820Y4875631D01*
X1211732Y4876393D01*
X1303934Y4876393D01*
X1307795Y4875631D01*
X1311097Y4873396D01*
X1313332Y4870094D01*
X1314094Y4866233D01*
X1314094Y4860594D01*
X1314805Y4854244D01*
X1316736Y4848809D01*
X1319784Y4843881D01*
X1323898Y4839817D01*
X1328775Y4836718D01*
X1334262Y4834788D01*
X1340561Y4834077D01*
X1519428Y4834077D01*
X1525727Y4834788D01*
X1531213Y4836718D01*
X1536090Y4839817D01*
X1540205Y4843881D01*
X1543304Y4848809D01*
X1545183Y4854244D01*
X1545894Y4860594D01*
X1545894Y4969408D01*
X1545183Y4975758D01*
X1543304Y4981194D01*
X1540205Y4986121D01*
X1536090Y4990185D01*
X1531213Y4993284D01*
X1525727Y4995214D01*
X1519428Y4995926D01*
X1340561Y4995926D01*
X1334262Y4995214D01*
X1328775Y4993284D01*
X1323898Y4990185D01*
X1319784Y4986121D01*
X1316736Y4981194D01*
X1314805Y4975758D01*
X1314094Y4969408D01*
X1314094Y4963769D01*
X1313332Y4959858D01*
X1311097Y4956556D01*
X1307795Y4954371D01*
X1303934Y4953609D01*
X1205026Y4953609D01*
X1201674Y4954168D01*
X1198727Y4955794D01*
X1195832Y4959299D01*
X1191768Y4963414D01*
X1186840Y4966462D01*
X1181404Y4968392D01*
X1175054Y4969103D01*
X1095552Y4969103D01*
X1089253Y4968392D01*
X1083767Y4966462D01*
X1078890Y4963414D01*
X1074775Y4959299D01*
X1071727Y4954422D01*
X1069594Y4948326D01*
X1067460Y4944770D01*
X1064056Y4942382D01*
X1059992Y4941519D01*
X1055928Y4942382D01*
X1052525Y4944770D01*
X1050391Y4948326D01*
X1048258Y4954422D01*
X1045210Y4959299D01*
X1041095Y4963414D01*
X1036218Y4966462D01*
X1030732Y4968392D01*
X1024432Y4969103D01*
X944930Y4969103D01*
X938580Y4968392D01*
X933145Y4966462D01*
X928217Y4963414D01*
X924153Y4959299D01*
X921054Y4954422D01*
X919175Y4948936D01*
X918464Y4942636D01*
X918464Y4892548D01*
X917651Y4888687D01*
X915466Y4885385D01*
X853033Y4822952D01*
X847953Y4816754D01*
X844397Y4810048D01*
X842162Y4802835D01*
X841400Y4794808D01*
X841400Y4751019D01*
X840790Y4747666D01*
X839114Y4744669D01*
X832866Y4736896D01*
X828192Y4728514D01*
X824992Y4719421D01*
X823366Y4709871D01*
X823366Y4700270D01*
X824992Y4690719D01*
X828192Y4681626D01*
X832866Y4673244D01*
X838962Y4665726D01*
X846175Y4659325D01*
X849528Y4656632D01*
X852728Y4652721D01*
X858570Y4647946D01*
X865225Y4644390D01*
X872490Y4642154D01*
G37*
G36*
X504545Y4824171D02*
G01*
X522579Y4825542D01*
X540410Y4828794D01*
X557784Y4833874D01*
X574548Y4840681D01*
X590550Y4849215D01*
X605586Y4859324D01*
X619455Y4870907D01*
X632104Y4883861D01*
X643382Y4898085D01*
X653084Y4913376D01*
X661162Y4929530D01*
X667562Y4946497D01*
X672185Y4964023D01*
X674979Y4981905D01*
X675894Y4999990D01*
X674979Y5018074D01*
X672185Y5035956D01*
X667562Y5053482D01*
X661162Y5070449D01*
X653084Y5086604D01*
X643382Y5101894D01*
X632104Y5116118D01*
X619455Y5129072D01*
X605586Y5140655D01*
X590550Y5150764D01*
X574548Y5159298D01*
X557784Y5166106D01*
X540410Y5171186D01*
X522579Y5174437D01*
X504545Y5175808D01*
X486409Y5175351D01*
X468477Y5173014D01*
X450850Y5168900D01*
X433730Y5162905D01*
X417322Y5155234D01*
X401828Y5145938D01*
X387299Y5135067D01*
X374040Y5122773D01*
X362051Y5109159D01*
X351586Y5094376D01*
X342646Y5078628D01*
X335432Y5062016D01*
X329895Y5044795D01*
X326186Y5027066D01*
X324358Y5009032D01*
X324358Y4990947D01*
X326186Y4972913D01*
X329895Y4955184D01*
X335432Y4937963D01*
X342646Y4921351D01*
X351586Y4905603D01*
X362051Y4890820D01*
X374040Y4877206D01*
X387299Y4864912D01*
X401828Y4854041D01*
X417322Y4844745D01*
X433730Y4837074D01*
X450850Y4831080D01*
X468477Y4826965D01*
X486409Y4824628D01*
G37*
G36*
X5004511Y4824171D02*
G01*
X5022596Y4825542D01*
X5040376Y4828794D01*
X5057800Y4833874D01*
X5074564Y4840681D01*
X5090515Y4849215D01*
X5105552Y4859324D01*
X5119471Y4870907D01*
X5132120Y4883861D01*
X5143347Y4898085D01*
X5153050Y4913376D01*
X5161178Y4929530D01*
X5167528Y4946497D01*
X5172151Y4964023D01*
X5174945Y4981905D01*
X5175859Y4999990D01*
X5174945Y5018074D01*
X5172151Y5035956D01*
X5167528Y5053482D01*
X5161178Y5070449D01*
X5153050Y5086604D01*
X5143347Y5101894D01*
X5132120Y5116118D01*
X5119471Y5129072D01*
X5105552Y5140655D01*
X5090515Y5150764D01*
X5074564Y5159298D01*
X5057800Y5166106D01*
X5040376Y5171186D01*
X5022596Y5174437D01*
X5004511Y5175808D01*
X4986426Y5175351D01*
X4968443Y5173014D01*
X4950815Y5168900D01*
X4933746Y5162905D01*
X4917338Y5155234D01*
X4901793Y5145938D01*
X4887315Y5135067D01*
X4874006Y5122773D01*
X4862068Y5109159D01*
X4851552Y5094376D01*
X4842662Y5078628D01*
X4835398Y5062016D01*
X4829911Y5044795D01*
X4826203Y5027066D01*
X4824323Y5009032D01*
X4824323Y4990947D01*
X4826203Y4972913D01*
X4829911Y4955184D01*
X4835398Y4937963D01*
X4842662Y4921351D01*
X4851552Y4905603D01*
X4862068Y4890820D01*
X4874006Y4877206D01*
X4887315Y4864912D01*
X4901793Y4854041D01*
X4917338Y4844745D01*
X4933746Y4837074D01*
X4950815Y4831080D01*
X4968443Y4826965D01*
X4986426Y4824628D01*
G37*
G36*
X4100576Y4834077D02*
G01*
X4279442Y4834077D01*
X4285742Y4834788D01*
X4291228Y4836718D01*
X4296105Y4839817D01*
X4300220Y4843881D01*
X4303268Y4848809D01*
X4305198Y4854244D01*
X4305909Y4860594D01*
X4305909Y4969408D01*
X4305198Y4975758D01*
X4303268Y4981194D01*
X4300220Y4986121D01*
X4296105Y4990185D01*
X4291228Y4993284D01*
X4285742Y4995214D01*
X4279442Y4995926D01*
X4100576Y4995926D01*
X4094226Y4995214D01*
X4088790Y4993284D01*
X4083862Y4990185D01*
X4079798Y4986121D01*
X4076700Y4981194D01*
X4074820Y4975758D01*
X4074109Y4969408D01*
X4074109Y4860594D01*
X4074820Y4854244D01*
X4076700Y4848809D01*
X4079798Y4843881D01*
X4083862Y4839817D01*
X4088790Y4836718D01*
X4094226Y4834788D01*
G37*
G36*
X4100576Y5204104D02*
G01*
X4138625Y5204104D01*
X4138625Y5251145D01*
X4074109Y5251145D01*
X4074109Y5230571D01*
X4074820Y5224272D01*
X4076700Y5218785D01*
X4079798Y5213908D01*
X4083862Y5209794D01*
X4088790Y5206695D01*
X4094226Y5204815D01*
G37*
G36*
X1960575Y5204104D02*
G01*
X1998624Y5204104D01*
X1998624Y5251145D01*
X1934108Y5251145D01*
X1934108Y5230571D01*
X1934819Y5224272D01*
X1936699Y5218785D01*
X1939798Y5213908D01*
X1943862Y5209794D01*
X1948789Y5206695D01*
X1954225Y5204815D01*
G37*
G36*
X2101342Y5204104D02*
G01*
X2139442Y5204104D01*
X2145741Y5204815D01*
X2151227Y5206695D01*
X2156104Y5209794D01*
X2160219Y5213908D01*
X2163267Y5218785D01*
X2165197Y5224272D01*
X2165908Y5230571D01*
X2165908Y5251145D01*
X2101342Y5251145D01*
G37*
G36*
X4241342Y5204104D02*
G01*
X4279442Y5204104D01*
X4285742Y5204815D01*
X4291228Y5206695D01*
X4296105Y5209794D01*
X4300220Y5213908D01*
X4303268Y5218785D01*
X4305198Y5224272D01*
X4305909Y5230571D01*
X4305909Y5251145D01*
X4241342Y5251145D01*
G37*
G36*
X1340561Y5204104D02*
G01*
X1519428Y5204104D01*
X1525727Y5204815D01*
X1531213Y5206695D01*
X1536090Y5209794D01*
X1540205Y5213908D01*
X1543304Y5218785D01*
X1545183Y5224272D01*
X1545894Y5230571D01*
X1545894Y5339435D01*
X1545183Y5345734D01*
X1543304Y5351221D01*
X1540205Y5356098D01*
X1536090Y5360212D01*
X1531213Y5363311D01*
X1525727Y5365191D01*
X1519428Y5365902D01*
X1340561Y5365902D01*
X1334262Y5365191D01*
X1328775Y5363311D01*
X1323898Y5360212D01*
X1319784Y5356098D01*
X1316736Y5351221D01*
X1314805Y5345734D01*
X1314094Y5339435D01*
X1314094Y5230571D01*
X1314805Y5224272D01*
X1316736Y5218785D01*
X1319784Y5213908D01*
X1323898Y5209794D01*
X1328775Y5206695D01*
X1334262Y5204815D01*
G37*
G36*
X3480562Y5204104D02*
G01*
X3659428Y5204104D01*
X3665728Y5204815D01*
X3671214Y5206695D01*
X3676091Y5209794D01*
X3680206Y5213908D01*
X3683254Y5218785D01*
X3685184Y5224272D01*
X3685895Y5230571D01*
X3685895Y5339435D01*
X3685184Y5345734D01*
X3683254Y5351221D01*
X3680206Y5356098D01*
X3676091Y5360212D01*
X3671214Y5363311D01*
X3665728Y5365191D01*
X3659428Y5365902D01*
X3480562Y5365902D01*
X3474262Y5365191D01*
X3468776Y5363311D01*
X3463899Y5360212D01*
X3459784Y5356098D01*
X3456686Y5351221D01*
X3454806Y5345734D01*
X3454095Y5339435D01*
X3454095Y5230571D01*
X3454806Y5224272D01*
X3456686Y5218785D01*
X3459784Y5213908D01*
X3463899Y5209794D01*
X3468776Y5206695D01*
X3474262Y5204815D01*
G37*
G36*
X1934108Y5318861D02*
G01*
X1998624Y5318861D01*
X1998624Y5365902D01*
X1960575Y5365902D01*
X1954225Y5365191D01*
X1948789Y5363311D01*
X1943862Y5360212D01*
X1939798Y5356098D01*
X1936699Y5351221D01*
X1934819Y5345734D01*
X1934108Y5339435D01*
G37*
G36*
X4074109Y5318861D02*
G01*
X4138625Y5318861D01*
X4138625Y5365902D01*
X4100576Y5365902D01*
X4094226Y5365191D01*
X4088790Y5363311D01*
X4083862Y5360212D01*
X4079798Y5356098D01*
X4076700Y5351221D01*
X4074820Y5345734D01*
X4074109Y5339435D01*
G37*
G36*
X2101342Y5318861D02*
G01*
X2165908Y5318861D01*
X2165908Y5339435D01*
X2165197Y5345734D01*
X2163267Y5351221D01*
X2160219Y5356098D01*
X2156104Y5360212D01*
X2151227Y5363311D01*
X2145741Y5365191D01*
X2139442Y5365902D01*
X2101342Y5365902D01*
G37*
G36*
X4241342Y5318861D02*
G01*
X4305909Y5318861D01*
X4305909Y5339435D01*
X4305198Y5345734D01*
X4303268Y5351221D01*
X4300220Y5356098D01*
X4296105Y5360212D01*
X4291228Y5363311D01*
X4285742Y5365191D01*
X4279442Y5365902D01*
X4241342Y5365902D01*
G37*

%LPD*%
D10*
X1350002Y324665D02*
G01*
X1374683Y299984D01*
X1610006Y299984D01*
X4709990Y1089995D02*
G01*
X4579993Y959998D01*
X4269991Y959998D01*
X4164987Y1065001D01*
X3819997Y1065001D01*
X3049988Y1019987D02*
G01*
X3209998Y1179997D01*
X3779992Y1179997D01*
X3819997Y1139992D01*
X3819997Y1065001D01*
X3049988Y1019987D02*
G01*
X2879984Y1019987D01*
X2450005Y590008D01*
X2450005Y492498D01*
X4709990Y1089995D02*
G01*
X4770821Y1150825D01*
X4770821Y1939508D01*
X1135313Y4899980D02*
G01*
X1150322Y4914988D01*
X1430007Y4914988D01*
X394995Y1164996D02*
G01*
X745083Y1164996D01*
X745088Y1165001D01*
X745091Y1070005D02*
G01*
X720432Y1094663D01*
X589998Y1094663D01*
X394995Y975004D02*
G01*
X745083Y975004D01*
X745088Y975009D01*
X974910Y1070005D02*
G01*
X1349987Y1070010D01*
X1349987Y1070010D02*
G01*
X1209997Y930020D01*
X1209997Y519998D01*
X1254683Y475312D01*
X1350002Y475312D01*
X3570000Y4914988D02*
G01*
X3570000Y4899982D01*
X3869992Y4599990D01*
X3869992Y3849992D01*
X3689984Y3669985D01*
X3689984Y3619474D01*
X2049995Y4914988D02*
G01*
X2049995Y4759990D01*
X1629996Y4339991D01*
X1629996Y2319995D01*
X1727517Y2222474D01*
X1890013Y2222474D01*
X4189161Y2066508D02*
G01*
X4167311Y2044659D01*
X4009994Y2044659D01*
X5205323Y2719984D02*
G01*
X5259994Y2774655D01*
X5259994Y2909994D01*
X3689984Y3238474D02*
G01*
X4241510Y3238474D01*
X4649990Y2829994D01*
X3519992Y2679994D02*
G01*
X3596513Y2603474D01*
X3689984Y2603474D01*
X3469993Y2259995D02*
G01*
X3507513Y2222474D01*
X3689984Y2222474D01*
X3689984Y2476474D02*
G01*
X3196473Y2476474D01*
X2385006Y1665008D01*
X2385006Y492498D01*
X3689984Y2349474D02*
G01*
X3309472Y2349474D01*
X2489995Y1529996D01*
X2320008Y492498D02*
G01*
X2320008Y1379997D01*
X4189161Y2320508D02*
G01*
X4219478Y2320508D01*
X4309991Y2229995D01*
X4770821Y1939508D02*
G01*
X4730480Y1939508D01*
X4650003Y2019985D01*
X5265315Y2129998D02*
G01*
X5069992Y1934674D01*
X5069992Y1765096D01*
X5114670Y2129998D02*
G01*
X5051181Y2066508D01*
X4770821Y2066508D01*
X5134653Y2329985D02*
G01*
X4998176Y2193508D01*
X4770821Y2193508D01*
X5285320Y2329985D02*
G01*
X5409989Y2205321D01*
X5409989Y1869993D01*
X5319979Y1779983D01*
X5319979Y1765096D01*
X5319984Y1594916D02*
G01*
X5319984Y1594916D01*
X5069992Y1594916D01*
X5069992Y1594916D02*
G01*
X5065074Y1589999D01*
X4919985Y1589999D01*
X4879987Y1629996D01*
X4879987Y1859998D01*
X4800475Y1939508D01*
X4770821Y1939508D01*
X144670Y4129996D02*
G01*
X139999Y4125325D01*
X139999Y3789992D01*
X3689858Y3365500D02*
G01*
X2404618Y3365500D01*
X1890013Y3880104D01*
X1839976Y3880104D01*
X1610006Y299984D02*
G01*
X1879991Y29999D01*
X2769994Y29999D01*
X2969994Y349999D01*
X3639992Y359999D01*
X3659990Y340001D01*
X3659990Y249234D01*
X3559990Y249234D02*
G01*
X3519225Y289999D01*
X3379993Y289999D01*
X3442982Y639996D02*
G01*
X3369993Y567006D01*
X3369993Y469999D01*
X4770881Y2320544D02*
G01*
X4899913Y2320036D01*
X3659886Y249173D02*
G01*
X3659886Y260095D01*
X4219956Y819912D01*
X4700015Y819912D01*
X4890008Y1009904D01*
X4890008Y1400047D01*
X3819997Y1065001D02*
G01*
X3774996Y1065001D01*
X3709992Y999997D01*
X3709992Y939998D01*
X3774981Y875009D01*
X3819997Y875009D01*
X589246Y2459992D02*
G01*
X739244Y2309995D01*
X809998Y2309995D01*
X539996Y2029988D02*
G01*
X679988Y1889996D01*
X829998Y1889996D01*
X1890013Y2095474D02*
G01*
X1010191Y2095474D01*
X804712Y1889996D01*
X3599982Y1065001D02*
G01*
X3594978Y1059997D01*
X3479993Y1059997D01*
X4369996Y459996D02*
G01*
X4359993Y469999D01*
X4079991Y469999D01*
X984666Y4899980D02*
G01*
X879998Y4795311D01*
X879998Y4679990D01*
D11*
G01*
X4189991Y5285002D03*
G01*
X3569992Y5285003D03*
G01*
X4189991Y4915001D03*
G01*
X3569992Y4915001D03*
G01*
X2049995Y5285002D03*
G01*
X1429997Y5285003D03*
G01*
X2049995Y4915001D03*
G01*
X1429997Y4915001D03*
D12*
G01*
X1349997Y1069997D03*
G01*
X1349997Y929998D03*
D13*
G01*
X4369991Y459999D03*
G01*
X4509990Y459999D03*
G01*
X3049993Y1019997D03*
G01*
X3189993Y1019997D03*
D14*
G01*
X1610004Y499998D03*
D15*
G01*
X1609996Y299996D03*
D16*
G01*
X124992Y1164993D03*
G01*
X124992Y1069997D03*
G01*
X124992Y975001D03*
G01*
X395003Y975001D03*
G01*
X395003Y1069997D03*
G01*
X395003Y1164993D03*
D17*
G01*
X589991Y1094663D03*
D18*
G01*
X589998Y1245322D03*
D17*
G01*
X1350010Y324662D03*
D18*
G01*
X1349997Y475324D03*
D19*
G01*
X295324Y4129991D03*
G01*
X144674Y4129991D03*
D20*
G01*
X5054664Y2719994D03*
G01*
X5205314Y2719994D03*
G01*
X984672Y4899990D03*
G01*
X1135322Y4899990D03*
D21*
G01*
X3759992Y249240D03*
G01*
X3659992Y249240D03*
G01*
X3559992Y249240D03*
D22*
G01*
X3354992Y110740D03*
G01*
X3964990Y110738D03*
D23*
G01*
X745088Y975001D03*
G01*
X745088Y1069997D03*
G01*
X745088Y1164993D03*
G01*
X974907Y1164993D03*
G01*
X974907Y1069997D03*
G01*
X974907Y975001D03*
D24*
G01*
X3599990Y1064999D03*
G01*
X3599990Y874996D03*
G01*
X3820002Y1064988D03*
G01*
X3820007Y875007D03*
G01*
X3820005Y969998D03*
D25*
G01*
X2449997Y492495D03*
G01*
X2384999Y492495D03*
G01*
X2319995Y492495D03*
G01*
X2254991Y492495D03*
G01*
X2189993Y492495D03*
D13*
G01*
X4709990Y1089997D03*
G01*
X4569990Y1089997D03*
G01*
X399999Y2029995D03*
G01*
X539998Y2029995D03*
D26*
G01*
X270748Y2459995D03*
G01*
X589249Y2459995D03*
D27*
G01*
X5069989Y1765086D03*
G01*
X5069989Y1594906D03*
G01*
X5319989Y1765086D03*
G01*
X5319989Y1594906D03*
D19*
G01*
X5265314Y2129995D03*
G01*
X5114664Y2129995D03*
G01*
X5285314Y2329995D03*
G01*
X5134664Y2329995D03*
D17*
G01*
X4009999Y2044674D03*
D18*
G01*
X4009991Y2195320D03*
D28*
G01*
X4189161Y1939495D03*
G01*
X4189161Y2066495D03*
G01*
X4189161Y2193495D03*
G01*
X4189161Y2320495D03*
G01*
X4770821Y2320495D03*
G01*
X4770821Y2193495D03*
G01*
X4770821Y2066495D03*
G01*
X4770821Y1939495D03*
D29*
G01*
X4479991Y2129997D03*
D30*
G01*
X1890019Y1968477D03*
G01*
X1890019Y2095477D03*
G01*
X1890019Y2222477D03*
G01*
X1890019Y2349477D03*
G01*
X1890019Y2476477D03*
G01*
X1890019Y2603477D03*
G01*
X1890019Y2730477D03*
G01*
X1890019Y2857477D03*
G01*
X1890019Y2984477D03*
G01*
X1890019Y3111477D03*
G01*
X1890019Y3238477D03*
G01*
X1890019Y3365477D03*
G01*
X1890019Y3492477D03*
G01*
X1890019Y3619477D03*
D31*
G01*
X2218504Y3771498D03*
G01*
X2345504Y3771498D03*
G01*
X2472504Y3771498D03*
G01*
X2599504Y3771498D03*
G01*
X2726504Y3771498D03*
G01*
X2853504Y3771473D03*
G01*
X2980504Y3771473D03*
G01*
X3107504Y3771473D03*
G01*
X3234504Y3771473D03*
G01*
X3361504Y3771473D03*
D30*
G01*
X3689990Y3619477D03*
G01*
X3689990Y3492477D03*
G01*
X3689990Y3365477D03*
G01*
X3689990Y3238477D03*
G01*
X3689990Y3111477D03*
G01*
X3689990Y2984477D03*
G01*
X3689990Y2857477D03*
G01*
X3689990Y2730477D03*
G01*
X3689990Y2603477D03*
G01*
X3689990Y2476477D03*
G01*
X3689990Y2349477D03*
G01*
X3689990Y2222477D03*
G01*
X3689990Y2095477D03*
G01*
X3689990Y1968477D03*
D32*
G01*
X2688301Y2722791D03*
D33*
G01*
X3696995Y640003D03*
D34*
G01*
X3442992Y639998D03*
D35*
G01*
X2677490Y197510D03*
G01*
X1962505Y542493D03*
G01*
X1962505Y202488D03*
G01*
X2677490Y542493D03*
D36*
G01*
X2389987Y4559985D03*
D37*
G01*
X2643987Y4559985D03*
G01*
X2897987Y4559985D03*
G01*
X3151987Y4559985D03*
D38*
G01*
X5259984Y2910001D03*
G01*
X4650003Y2829991D03*
G01*
X3519982Y2680004D03*
G01*
X3469995Y2259990D03*
G01*
X2489987Y1529994D03*
G01*
X2320010Y1380007D03*
G01*
X4650003Y2019985D03*
G01*
X4309999Y2229993D03*
G01*
X140004Y3789984D03*
G01*
X1839976Y3880104D03*
G01*
X3369995Y470001D03*
G01*
X3380003Y289991D03*
G01*
X4899913Y2320036D03*
G01*
X4890008Y1400047D03*
G01*
X810005Y2310003D03*
G01*
X804722Y1889988D03*
G01*
X3480003Y1059992D03*
G01*
X4080002Y470001D03*
G01*
X880008Y4705070D03*
M02*
